M48
; DRILL file {KiCad 7.0.10} date 
; FORMAT={-:-/ absolute / inch / decimal}
; #@! TF.CreationDate,2024-08-15T13:32:28+05:30
; #@! TF.GenerationSoftware,Kicad,Pcbnew,7.0.10
; #@! TF.FileFunction,Plated,1,2,PTH
FMAT,2
INCH
; #@! TA.AperFunction,Plated,PTH,ViaDrill
T1C0.0157
; #@! TA.AperFunction,Plated,PTH,ComponentDrill
T2C0.0236
; #@! TA.AperFunction,Plated,PTH,ComponentDrill
T3C0.0300
; #@! TA.AperFunction,Plated,PTH,ComponentDrill
T4C0.0315
; #@! TA.AperFunction,Plated,PTH,ComponentDrill
T5C0.0354
; #@! TA.AperFunction,Plated,PTH,ComponentDrill
T6C0.0394
; #@! TA.AperFunction,Plated,PTH,ComponentDrill
T7C0.0433
; #@! TA.AperFunction,Plated,PTH,ComponentDrill
T8C0.0866
%
G90
G05
T1
X3.35Y-4.06
X3.36Y-3.11
X3.36Y-4.79
X3.39Y-2.9116
X3.39Y-2.9509
X3.3902Y-3.0302
X3.3934Y-4.68
X3.41Y-3.63
X3.43Y-3.84
X3.43Y-4.01
X3.44Y-3.13
X3.47Y-3.96
X3.48Y-3.38
X3.48Y-4.12
X3.48Y-4.84
X3.49Y-4.8
X3.5Y-2.96
X3.5Y-3.05
X3.52Y-3.82
X3.58Y-3.6
X3.58Y-4.07
X3.61Y-4.68
X3.64Y-3.23
X3.65Y-3.07
X3.67Y-3.15
X3.67Y-3.79
X3.68Y-4.84
X3.75Y-3.18
X3.77Y-3.02
X3.77Y-4.87
X3.86Y-4.24
X3.87Y-2.98
X3.87Y-3.88
X3.87Y-4.48
X3.89Y-3.26
X3.89Y-3.32
X3.9Y-4.16
X3.91Y-3.98
X3.92Y-3.03
X3.92Y-3.1
X3.92Y-3.16
X3.92Y-4.66
X3.94Y-3.48
X3.95Y-3.54
X3.95Y-4.19
X3.95Y-4.28
X3.95Y-4.75
X3.96Y-4.61
X3.98Y-3.77
X3.99Y-2.95
X4.0Y-3.09
X4.0Y-4.07
X4.0Y-4.41
X4.01Y-3.34
X4.01Y-3.5
X4.03Y-3.41
X4.05Y-3.87
X4.05Y-4.15
X4.06Y-4.2
X4.07Y-3.58
X4.09Y-3.15
X4.09Y-3.79
X4.1Y-3.49
X4.11Y-3.07
X4.12Y-3.44
X4.12Y-3.62
X4.13Y-4.2
X4.13Y-4.28
X4.14Y-4.79
X4.14Y-4.88
X4.15Y-3.69
X4.15Y-3.81
X4.16Y-3.76
X4.17Y-4.07
X4.19Y-4.92
X4.2Y-3.85
X4.21Y-4.41
X4.22Y-4.74
X4.23Y-4.36
X4.29Y-2.97
X4.29Y-3.11
X4.29Y-3.26
X4.29Y-3.53
X4.3Y-3.32
X4.31Y-3.57
X4.31Y-4.15
X4.31Y-4.29
X4.32Y-3.8
X4.34Y-3.09
X4.3411Y-4.9089
X4.35Y-2.92
X4.35Y-4.34
X4.37Y-3.73
X4.38Y-4.68
X4.4Y-3.09
X4.4Y-3.4
X4.41Y-3.69
X4.44Y-4.39
X4.44Y-4.68
X4.45Y-3.43
X4.45Y-3.53
X4.46Y-2.99
X4.48Y-4.2
X4.49Y-3.81
X4.5Y-3.35
X4.5Y-3.93
X4.51Y-4.74
X4.52Y-3.43
X4.52Y-3.5768
X4.54Y-3.49
X4.54Y-4.24
X4.56Y-3.56
X4.56Y-3.8
X4.56Y-4.11
X4.57Y-3.11
X4.59Y-3.4
X4.59Y-3.7
X4.59Y-4.52
X4.62Y-3.04
X4.63Y-3.79
X4.65Y-3.29
X4.68Y-3.96
X4.69Y-2.92
X4.7Y-4.29
X4.71Y-3.09
X4.71Y-3.42
X4.71Y-4.91
X4.73Y-3.7
X4.75Y-3.32
X4.75Y-3.55
X4.75Y-4.82
X4.76Y-2.89
X4.78Y-3.86
X4.79Y-2.99
X4.79Y-4.05
X4.79Y-4.32
X4.8Y-4.8
X4.81Y-3.08
X4.83Y-3.58
X4.83Y-4.01
X4.85Y-3.86
X4.85Y-4.44
X4.86Y-4.36
X4.9Y-3.68
X4.92Y-3.77
X4.95Y-4.17
X4.96Y-4.39
X4.97Y-3.54
X4.98Y-3.0
X4.98Y-3.28
X4.99Y-2.92
X4.99Y-3.59
X5.02Y-4.19
X5.04Y-3.17
X5.04Y-3.92
X5.04Y-4.93
X5.08Y-3.79
X5.08Y-3.89
X5.08Y-4.48
X5.0882Y-4.32
X5.09Y-3.39
X5.12Y-4.38
X5.13Y-2.96
X5.18Y-3.38
X5.2Y-4.29
X5.21Y-3.94
X5.24Y-4.29
X5.25Y-3.68
X5.27Y-3.98
X5.27Y-4.06
X5.29Y-3.5
X5.31Y-4.67
X5.34Y-4.05
X5.34Y-4.43
X5.34Y-4.91
X5.35Y-3.62
X5.35Y-4.37
X5.37Y-4.51
X5.39Y-3.91
X5.39Y-4.13
X5.4Y-3.58
X5.41Y-4.58
X5.42Y-3.86
X5.42Y-4.17
X5.42Y-4.47
X5.46Y-4.23
X5.47Y-4.0
X5.49Y-4.7
X5.52Y-3.84
X5.52Y-4.12
X5.53Y-4.25
X5.57Y-4.45
X5.58Y-3.07
X5.59Y-4.6
X5.67Y-4.35
X5.68Y-4.5
X5.69Y-3.35
X5.75Y-3.83
X5.75Y-4.88
X5.78Y-3.88
X5.8Y-4.64
X5.8072Y-3.3318
X5.81Y-4.48
X5.83Y-3.77
X5.83Y-3.97
X5.84Y-3.56
X5.85Y-3.31
X5.86Y-3.74
X5.87Y-3.79
X5.87Y-4.67
X5.88Y-3.51
X5.9327Y-3.2424
X5.94Y-3.1
X5.94Y-4.12
X5.94Y-4.59
X5.95Y-4.07
X5.98Y-4.35
X5.99Y-4.61
X6.0Y-3.12
X6.01Y-3.99
X6.01Y-4.3
X6.02Y-3.72
X6.04Y-3.18
X6.05Y-4.62
X6.07Y-3.85
X6.09Y-3.91
X6.09Y-4.03
X6.13Y-3.43
X6.14Y-3.52
X6.21Y-3.63
X6.25Y-3.3
X6.28Y-4.48
X6.28Y-4.53
X6.3Y-4.66
T3
X4.135Y-4.555
X4.235Y-4.555
X4.335Y-4.555
X4.4237Y-3.8063
X4.4237Y-3.9063
X4.4237Y-4.0063
X4.4237Y-4.1063
X4.4237Y-4.2063
X4.435Y-4.555
X4.535Y-4.555
X4.635Y-4.555
X4.735Y-4.555
X4.835Y-4.555
T4
X3.76Y-3.4
X3.76Y-3.5
X3.76Y-3.6
X3.76Y-3.7
X3.76Y-3.8
X3.76Y-3.9
X3.76Y-4.0
X3.76Y-4.1
X3.76Y-4.2
X3.76Y-4.3
X3.76Y-4.4
X3.76Y-4.5
X3.76Y-4.6
X3.76Y-4.7
X5.5643Y-3.99
X5.7565Y-3.99
T5
X6.17Y-4.04
X6.17Y-4.1384
X6.17Y-4.2369
T6
X4.8Y-4.7
X4.9Y-4.7
X5.0Y-4.7
X5.1Y-4.7
X5.6404Y-4.75
X5.9396Y-4.75
T7
X3.292Y-4.5714
X3.292Y-4.7486
X3.302Y-3.3214
X3.302Y-3.4986
X3.302Y-3.7314
X3.302Y-3.9086
X3.302Y-4.2014
X3.302Y-4.3786
X3.312Y-2.9914
X3.312Y-3.1686
X3.548Y-4.5714
X3.548Y-4.7486
X3.558Y-3.3214
X3.558Y-3.4986
X3.558Y-3.7314
X3.558Y-3.9086
X3.558Y-4.2014
X3.558Y-4.3786
X3.568Y-2.9914
X3.568Y-3.1686
T8
X6.25Y-4.94
T2
G00X6.1142Y-2.9992
M15
G01X6.1575Y-2.9992
M16
G05
G00X6.1142Y-3.3394
M15
G01X6.1575Y-3.3394
M16
G05
G00X6.2886Y-2.9992
M15
G01X6.3122Y-2.9992
M16
G05
G00X6.2886Y-3.3394
M15
G01X6.3122Y-3.3394
M16
G05
M30
