%TF.GenerationSoftware,KiCad,Pcbnew,7.0.10*%
%TF.CreationDate,2024-08-15T13:32:22+05:30*%
%TF.ProjectId,Watch,57617463-682e-46b6-9963-61645f706362,rev?*%
%TF.SameCoordinates,Original*%
%TF.FileFunction,Paste,Top*%
%TF.FilePolarity,Positive*%
%FSLAX46Y46*%
G04 Gerber Fmt 4.6, Leading zero omitted, Abs format (unit mm)*
G04 Created by KiCad (PCBNEW 7.0.10) date 2024-08-15 13:32:22*
%MOMM*%
%LPD*%
G01*
G04 APERTURE LIST*
G04 Aperture macros list*
%AMRoundRect*
0 Rectangle with rounded corners*
0 $1 Rounding radius*
0 $2 $3 $4 $5 $6 $7 $8 $9 X,Y pos of 4 corners*
0 Add a 4 corners polygon primitive as box body*
4,1,4,$2,$3,$4,$5,$6,$7,$8,$9,$2,$3,0*
0 Add four circle primitives for the rounded corners*
1,1,$1+$1,$2,$3*
1,1,$1+$1,$4,$5*
1,1,$1+$1,$6,$7*
1,1,$1+$1,$8,$9*
0 Add four rect primitives between the rounded corners*
20,1,$1+$1,$2,$3,$4,$5,0*
20,1,$1+$1,$4,$5,$6,$7,0*
20,1,$1+$1,$6,$7,$8,$9,0*
20,1,$1+$1,$8,$9,$2,$3,0*%
G04 Aperture macros list end*
%ADD10C,0.010000*%
%ADD11RoundRect,0.281250X-0.618750X-1.188750X0.618750X-1.188750X0.618750X1.188750X-0.618750X1.188750X0*%
%ADD12RoundRect,0.079500X-0.079500X-0.100500X0.079500X-0.100500X0.079500X0.100500X-0.079500X0.100500X0*%
%ADD13RoundRect,0.078500X-0.078500X-0.101500X0.078500X-0.101500X0.078500X0.101500X-0.078500X0.101500X0*%
%ADD14RoundRect,0.250000X-0.375000X-1.075000X0.375000X-1.075000X0.375000X1.075000X-0.375000X1.075000X0*%
%ADD15RoundRect,0.250000X0.262500X0.450000X-0.262500X0.450000X-0.262500X-0.450000X0.262500X-0.450000X0*%
%ADD16RoundRect,0.250000X-0.262500X-0.450000X0.262500X-0.450000X0.262500X0.450000X-0.262500X0.450000X0*%
%ADD17RoundRect,0.150000X0.587500X0.150000X-0.587500X0.150000X-0.587500X-0.150000X0.587500X-0.150000X0*%
%ADD18RoundRect,0.150000X0.500000X-0.150000X0.500000X0.150000X-0.500000X0.150000X-0.500000X-0.150000X0*%
%ADD19RoundRect,0.075000X0.575000X-0.075000X0.575000X0.075000X-0.575000X0.075000X-0.575000X-0.075000X0*%
%ADD20RoundRect,0.079500X0.079500X0.100500X-0.079500X0.100500X-0.079500X-0.100500X0.079500X-0.100500X0*%
%ADD21RoundRect,0.250000X0.450000X-0.262500X0.450000X0.262500X-0.450000X0.262500X-0.450000X-0.262500X0*%
%ADD22RoundRect,0.250000X2.050000X0.300000X-2.050000X0.300000X-2.050000X-0.300000X2.050000X-0.300000X0*%
%ADD23RoundRect,0.250000X2.025000X2.375000X-2.025000X2.375000X-2.025000X-2.375000X2.025000X-2.375000X0*%
%ADD24RoundRect,0.250000X0.312500X0.625000X-0.312500X0.625000X-0.312500X-0.625000X0.312500X-0.625000X0*%
%ADD25RoundRect,0.250000X-1.000000X-0.650000X1.000000X-0.650000X1.000000X0.650000X-1.000000X0.650000X0*%
%ADD26R,1.400000X1.000000*%
%ADD27RoundRect,0.075000X-0.910000X-0.225000X0.910000X-0.225000X0.910000X0.225000X-0.910000X0.225000X0*%
%ADD28R,1.500000X0.900000*%
%ADD29R,0.900000X1.500000*%
%ADD30R,1.050000X1.050000*%
%ADD31RoundRect,0.150000X0.825000X0.150000X-0.825000X0.150000X-0.825000X-0.150000X0.825000X-0.150000X0*%
G04 APERTURE END LIST*
%TO.C,U5*%
D10*
X133340000Y-107345000D02*
X132050000Y-107345000D01*
X132050000Y-105705000D01*
X133340000Y-105705000D01*
X133340000Y-107345000D01*
G36*
X133340000Y-107345000D02*
G01*
X132050000Y-107345000D01*
X132050000Y-105705000D01*
X133340000Y-105705000D01*
X133340000Y-107345000D01*
G37*
%TD*%
D11*
%TO.C,GPS*%
X109728000Y-122682000D03*
X112268000Y-122682000D03*
X114808000Y-122682000D03*
X117348000Y-122682000D03*
%TD*%
D12*
%TO.C,C7*%
X134711000Y-117348000D03*
D13*
X134021000Y-117348000D03*
%TD*%
D14*
%TO.C,D4*%
X131702000Y-88646000D03*
X128902000Y-88646000D03*
%TD*%
D12*
%TO.C,C6*%
X122936000Y-101092000D03*
X122246000Y-101092000D03*
%TD*%
D14*
%TO.C,D3*%
X131702000Y-93726000D03*
X128902000Y-93726000D03*
%TD*%
D15*
%TO.C,R15*%
X118411000Y-102108000D03*
X116586000Y-102108000D03*
%TD*%
D12*
%TO.C,R11*%
X142748000Y-114554000D03*
X142058000Y-114554000D03*
%TD*%
D15*
%TO.C,R1*%
X151792500Y-74300000D03*
X149967500Y-74300000D03*
%TD*%
D16*
%TO.C,R19*%
X124563500Y-104170000D03*
X126388500Y-104170000D03*
%TD*%
D12*
%TO.C,C1*%
X154410000Y-91460000D03*
X153720000Y-91460000D03*
%TD*%
D16*
%TO.C,R4*%
X149817500Y-81010000D03*
X151642500Y-81010000D03*
%TD*%
D17*
%TO.C,Q3*%
X138097500Y-89088000D03*
X138097500Y-87188000D03*
X136222500Y-88138000D03*
%TD*%
D14*
%TO.C,D5*%
X127530000Y-108820000D03*
X124730000Y-108820000D03*
%TD*%
D18*
%TO.C,J1*%
X155210000Y-83700000D03*
X155210000Y-82900000D03*
D19*
X155210000Y-82250000D03*
X155210000Y-81250000D03*
X155210000Y-79750000D03*
X155210000Y-78750000D03*
D18*
X155210000Y-78100000D03*
X155210000Y-77300000D03*
X155210000Y-77300000D03*
X155210000Y-78100000D03*
D19*
X155210000Y-79250000D03*
X155210000Y-80250000D03*
X155210000Y-80750000D03*
X155210000Y-81750000D03*
D18*
X155210000Y-82900000D03*
X155210000Y-83700000D03*
%TD*%
D12*
%TO.C,C14*%
X134112000Y-87376000D03*
X133422000Y-87376000D03*
%TD*%
%TO.C,C19*%
X122936000Y-96266000D03*
X122246000Y-96266000D03*
%TD*%
D20*
%TO.C,C13*%
X151105000Y-102108000D03*
X151795000Y-102108000D03*
%TD*%
D15*
%TO.C,R25*%
X95908500Y-78486000D03*
X94083500Y-78486000D03*
%TD*%
D14*
%TO.C,D6*%
X124690000Y-113410000D03*
X127490000Y-113410000D03*
%TD*%
D21*
%TO.C,R14*%
X130810000Y-100330000D03*
X130810000Y-98505000D03*
%TD*%
%TO.C,R18*%
X151384000Y-100123000D03*
X151384000Y-98298000D03*
%TD*%
D16*
%TO.C,R21*%
X131167500Y-115570000D03*
X132992500Y-115570000D03*
%TD*%
D12*
%TO.C,R12*%
X136652000Y-117348000D03*
X135962000Y-117348000D03*
%TD*%
D20*
%TO.C,C17*%
X146025000Y-111506000D03*
X146715000Y-111506000D03*
%TD*%
D12*
%TO.C,C16*%
X149098000Y-111506000D03*
X148408000Y-111506000D03*
%TD*%
%TO.C,R2*%
X154385000Y-87790000D03*
X153695000Y-87790000D03*
%TD*%
D16*
%TO.C,R3*%
X149777500Y-83360000D03*
X151602500Y-83360000D03*
%TD*%
D12*
%TO.C,C15*%
X120487000Y-97028000D03*
X119797000Y-97028000D03*
%TD*%
D20*
%TO.C,C8*%
X146376000Y-105410000D03*
X147066000Y-105410000D03*
%TD*%
D22*
%TO.C,U2*%
X145179000Y-82883000D03*
X145179000Y-81183000D03*
X145179000Y-79483000D03*
D23*
X138454000Y-82258000D03*
X138454000Y-76708000D03*
X133604000Y-82258000D03*
X133604000Y-76708000D03*
D22*
X145179000Y-77783000D03*
X145179000Y-76083000D03*
%TD*%
D24*
%TO.C,R17*%
X121858500Y-106426000D03*
X118933500Y-106426000D03*
%TD*%
D21*
%TO.C,R9*%
X104648000Y-100480500D03*
X104648000Y-98655500D03*
%TD*%
D16*
%TO.C,C5*%
X149837500Y-94000000D03*
X151662500Y-94000000D03*
%TD*%
%TO.C,R20*%
X131175000Y-111730000D03*
X133000000Y-111730000D03*
%TD*%
%TO.C,R7*%
X124667000Y-100584000D03*
X126492000Y-100584000D03*
%TD*%
D21*
%TO.C,R6*%
X148590000Y-108608500D03*
X148590000Y-106783500D03*
%TD*%
%TO.C,R8*%
X117856000Y-99464500D03*
X117856000Y-97639500D03*
%TD*%
D20*
%TO.C,C12*%
X120142000Y-103124000D03*
X120832000Y-103124000D03*
%TD*%
D16*
%TO.C,R23*%
X94083500Y-82804000D03*
X95908500Y-82804000D03*
%TD*%
D25*
%TO.C,D1*%
X154840000Y-95120000D03*
X158840000Y-95120000D03*
%TD*%
D12*
%TO.C,C18*%
X156646000Y-97790000D03*
X155956000Y-97790000D03*
%TD*%
%TO.C,C11*%
X120741000Y-101092000D03*
X120051000Y-101092000D03*
%TD*%
D17*
%TO.C,Q2*%
X138097500Y-94168000D03*
X138097500Y-92268000D03*
X136222500Y-93218000D03*
%TD*%
D12*
%TO.C,C4*%
X151045000Y-90860000D03*
X150355000Y-90860000D03*
%TD*%
D20*
%TO.C,C2*%
X148450000Y-77030000D03*
X149140000Y-77030000D03*
%TD*%
D12*
%TO.C,C10*%
X139283000Y-106172000D03*
X138593000Y-106172000D03*
%TD*%
D21*
%TO.C,R10*%
X108712000Y-100480500D03*
X108712000Y-98655500D03*
%TD*%
D17*
%TO.C,Q1*%
X159512000Y-89022000D03*
X159512000Y-87122000D03*
X157637000Y-88072000D03*
%TD*%
D15*
%TO.C,R16*%
X126388500Y-97282000D03*
X124563500Y-97282000D03*
%TD*%
D16*
%TO.C,R5*%
X149807500Y-86620000D03*
X151632500Y-86620000D03*
%TD*%
D20*
%TO.C,C3*%
X152355000Y-77070000D03*
X153045000Y-77070000D03*
%TD*%
D16*
%TO.C,R24*%
X93980000Y-74930000D03*
X95805000Y-74930000D03*
%TD*%
D26*
%TO.C,Q4*%
X139530000Y-112710000D03*
X139530000Y-110810000D03*
X137330000Y-111760000D03*
%TD*%
D27*
%TO.C,U5*%
X130220000Y-104620000D03*
X130220000Y-105890000D03*
X130220000Y-107160000D03*
X130220000Y-108430000D03*
X135170000Y-108430000D03*
X135170000Y-107160000D03*
X135170000Y-105890000D03*
X135170000Y-104620000D03*
%TD*%
D21*
%TO.C,R13*%
X135382000Y-100330000D03*
X135382000Y-98505000D03*
%TD*%
D14*
%TO.C,D2*%
X144910000Y-107950000D03*
X142110000Y-107950000D03*
%TD*%
D12*
%TO.C,C9*%
X122936000Y-99060000D03*
X122246000Y-99060000D03*
%TD*%
D15*
%TO.C,R22*%
X118872000Y-118618000D03*
X117047000Y-118618000D03*
%TD*%
D28*
%TO.C,U1*%
X107030000Y-74440000D03*
X107030000Y-75710000D03*
X107030000Y-76980000D03*
X107030000Y-78250000D03*
X107030000Y-79520000D03*
X107030000Y-80790000D03*
X107030000Y-82060000D03*
X107030000Y-83330000D03*
X107030000Y-84600000D03*
X107030000Y-85870000D03*
X107030000Y-87140000D03*
X107030000Y-88410000D03*
X107030000Y-89680000D03*
X107030000Y-90950000D03*
D29*
X110070000Y-92200000D03*
X111340000Y-92200000D03*
X112610000Y-92200000D03*
X113880000Y-92200000D03*
X115150000Y-92200000D03*
X116420000Y-92200000D03*
X117690000Y-92200000D03*
X118960000Y-92200000D03*
X120230000Y-92200000D03*
X121500000Y-92200000D03*
D28*
X124530000Y-90950000D03*
X124530000Y-89680000D03*
X124530000Y-88410000D03*
X124530000Y-87140000D03*
X124530000Y-85870000D03*
X124530000Y-84600000D03*
X124530000Y-83330000D03*
X124530000Y-82060000D03*
X124530000Y-80790000D03*
X124530000Y-79520000D03*
X124530000Y-78250000D03*
X124530000Y-76980000D03*
X124530000Y-75710000D03*
X124530000Y-74440000D03*
D30*
X113575000Y-80255000D03*
X113575000Y-81780000D03*
X113575000Y-83305000D03*
X115100000Y-80255000D03*
X115100000Y-81780000D03*
X115100000Y-83305000D03*
X116625000Y-80255000D03*
X116625000Y-81780000D03*
X116625000Y-83305000D03*
%TD*%
D31*
%TO.C,U4*%
X145985000Y-95631000D03*
X145985000Y-94361000D03*
X145985000Y-93091000D03*
X145985000Y-91821000D03*
X145985000Y-90551000D03*
X145985000Y-89281000D03*
X145985000Y-88011000D03*
X145985000Y-86741000D03*
X141035000Y-86741000D03*
X141035000Y-88011000D03*
X141035000Y-89281000D03*
X141035000Y-90551000D03*
X141035000Y-91821000D03*
X141035000Y-93091000D03*
X141035000Y-94361000D03*
X141035000Y-95631000D03*
%TD*%
M02*
