%TF.GenerationSoftware,KiCad,Pcbnew,7.0.10*%
%TF.CreationDate,2024-08-15T13:32:22+05:30*%
%TF.ProjectId,Watch,57617463-682e-46b6-9963-61645f706362,rev?*%
%TF.SameCoordinates,Original*%
%TF.FileFunction,Copper,L2,Bot*%
%TF.FilePolarity,Positive*%
%FSLAX46Y46*%
G04 Gerber Fmt 4.6, Leading zero omitted, Abs format (unit mm)*
G04 Created by KiCad (PCBNEW 7.0.10) date 2024-08-15 13:32:22*
%MOMM*%
%LPD*%
G01*
G04 APERTURE LIST*
%TA.AperFunction,ComponentPad*%
%ADD10C,3.800000*%
%TD*%
%TA.AperFunction,ComponentPad*%
%ADD11C,1.408000*%
%TD*%
%TA.AperFunction,ComponentPad*%
%ADD12R,1.408000X1.408000*%
%TD*%
%TA.AperFunction,ComponentPad*%
%ADD13C,2.000000*%
%TD*%
%TA.AperFunction,ComponentPad*%
%ADD14R,1.700000X1.700000*%
%TD*%
%TA.AperFunction,ComponentPad*%
%ADD15O,1.700000X1.700000*%
%TD*%
%TA.AperFunction,ComponentPad*%
%ADD16O,1.600000X1.000000*%
%TD*%
%TA.AperFunction,ComponentPad*%
%ADD17O,2.100000X1.000000*%
%TD*%
%TA.AperFunction,ComponentPad*%
%ADD18C,1.524000*%
%TD*%
%TA.AperFunction,ComponentPad*%
%ADD19C,1.500000*%
%TD*%
%TA.AperFunction,ComponentPad*%
%ADD20O,3.000000X1.500000*%
%TD*%
%TA.AperFunction,ComponentPad*%
%ADD21R,2.000000X2.000000*%
%TD*%
%TA.AperFunction,ViaPad*%
%ADD22C,0.800000*%
%TD*%
%TA.AperFunction,Conductor*%
%ADD23C,0.160000*%
%TD*%
%TA.AperFunction,Conductor*%
%ADD24C,0.250000*%
%TD*%
%TA.AperFunction,Conductor*%
%ADD25C,0.180000*%
%TD*%
%TA.AperFunction,Conductor*%
%ADD26C,0.200000*%
%TD*%
G04 APERTURE END LIST*
D10*
%TO.P,M2,1*%
%TO.N,N/C*%
X158750000Y-125476000D03*
%TD*%
D11*
%TO.P,SW1,3,C*%
%TO.N,Net-(SW1A-C)*%
X156718000Y-102616000D03*
%TO.P,SW1,2,B*%
%TO.N,Enb*%
X156718000Y-105116000D03*
D12*
%TO.P,SW1,1,A*%
%TO.N,GND*%
X156718000Y-107616000D03*
%TD*%
D13*
%TO.P,BOOT,1,A*%
%TO.N,Io0*%
X83872000Y-106716000D03*
X90372000Y-106716000D03*
%TO.P,BOOT,2,B*%
%TO.N,GND*%
X83872000Y-111216000D03*
X90372000Y-111216000D03*
%TD*%
%TO.P,Failsafe,1,A*%
%TO.N,Fail_safe*%
X84126000Y-75982000D03*
X90626000Y-75982000D03*
%TO.P,Failsafe,2,B*%
%TO.N,GND*%
X84126000Y-80482000D03*
X90626000Y-80482000D03*
%TD*%
%TO.P,Reset,1,A*%
%TO.N,GND*%
X83618000Y-116114000D03*
X90118000Y-116114000D03*
%TO.P,Reset,2,B*%
%TO.N,EN*%
X83618000Y-120614000D03*
X90118000Y-120614000D03*
%TD*%
D14*
%TO.P,J3,1,3.3*%
%TO.N,GND*%
X129540000Y-119380000D03*
D15*
%TO.P,J3,2,RX*%
%TO.N,TX*%
X127000000Y-119380000D03*
%TO.P,J3,3,TX*%
%TO.N,RX*%
X124460000Y-119380000D03*
%TO.P,J3,4,GND*%
%TO.N,+3.3V*%
X121920000Y-119380000D03*
%TD*%
D16*
%TO.P,J1,S1,SHIELD*%
%TO.N,GND*%
X160030000Y-76180000D03*
D17*
X155850000Y-76180000D03*
D16*
X160030000Y-84820000D03*
D17*
X155850000Y-84820000D03*
%TD*%
D18*
%TO.P,U6,1,Vcc*%
%TO.N,+3.3V*%
X105029000Y-115697000D03*
%TO.P,U6,2,GND*%
%TO.N,GND*%
X107569000Y-115697000D03*
%TO.P,U6,3,SCL*%
%TO.N,SCL*%
X110109000Y-115697000D03*
%TO.P,U6,4,SDA*%
%TO.N,SDA*%
X112649000Y-115697000D03*
%TO.P,U6,5,XDA*%
%TO.N,unconnected-(U6-XDA-Pad5)*%
X115189000Y-115697000D03*
%TO.P,U6,6,XCL*%
%TO.N,unconnected-(U6-XCL-Pad6)*%
X117729000Y-115697000D03*
%TO.P,U6,7,AD0*%
%TO.N,Net-(U6-AD0)*%
X120269000Y-115697000D03*
%TO.P,U6,8,INT*%
%TO.N,unconnected-(U6-INT-Pad8)*%
X122809000Y-115697000D03*
%TD*%
D19*
%TO.P,Y1,1,1*%
%TO.N,Net-(U4-XI)*%
X146214000Y-101346000D03*
%TO.P,Y1,2,2*%
%TO.N,Net-(U4-XO)*%
X141334000Y-101346000D03*
%TD*%
D13*
%TO.P,Control_1,1,A*%
%TO.N,C_1*%
X90372000Y-88864000D03*
X83872000Y-88864000D03*
%TO.P,Control_1,2,B*%
%TO.N,GND*%
X90372000Y-84364000D03*
X83872000Y-84364000D03*
%TD*%
D18*
%TO.P,MAX1,1,Vin*%
%TO.N,+3.3V*%
X112363000Y-96679000D03*
%TO.P,MAX1,2,GND*%
%TO.N,GND*%
X112363000Y-99219000D03*
%TO.P,MAX1,3,SCL*%
%TO.N,SCL*%
X112363000Y-101759000D03*
%TO.P,MAX1,4,SDA*%
%TO.N,SDA*%
X112363000Y-104299000D03*
%TO.P,MAX1,5,INT*%
%TO.N,unconnected-(MAX1-INT-Pad5)*%
X112363000Y-106839000D03*
%TD*%
D20*
%TO.P,U3,1,VCC*%
%TO.N,+3.3V*%
X95504000Y-86360000D03*
%TO.P,U3,2,GND*%
%TO.N,GND*%
X95504000Y-88900000D03*
%TO.P,U3,3,CS*%
%TO.N,CS*%
X95504000Y-91440000D03*
%TO.P,U3,4,RST*%
%TO.N,RST*%
X95504000Y-93980000D03*
%TO.P,U3,5,DC*%
%TO.N,DC*%
X95504000Y-96520000D03*
%TO.P,U3,6,MOSI*%
%TO.N,MOSI*%
X95504000Y-99060000D03*
%TO.P,U3,7,SCK*%
%TO.N,SCK*%
X95504000Y-101600000D03*
%TO.P,U3,8,LED*%
%TO.N,+3.3V*%
X95504000Y-104140000D03*
%TO.P,U3,9,MISO*%
%TO.N,MISO*%
X95504000Y-106680000D03*
%TO.P,U3,10,T_CLK*%
%TO.N,SCK*%
X95504000Y-109220000D03*
%TO.P,U3,11,T_CS*%
%TO.N,T_CS*%
X95504000Y-111760000D03*
%TO.P,U3,12,T_DIN*%
%TO.N,MOSI*%
X95504000Y-114300000D03*
%TO.P,U3,13,T_D0*%
%TO.N,MISO*%
X95504000Y-116840000D03*
%TO.P,U3,14,T_IRQ*%
%TO.N,T_IRQ*%
X95504000Y-119380000D03*
%TD*%
D13*
%TO.P,Control_2,1,A*%
%TO.N,C_2*%
X83872000Y-94778000D03*
X90372000Y-94778000D03*
%TO.P,Control_2,2,B*%
%TO.N,GND*%
X83872000Y-99278000D03*
X90372000Y-99278000D03*
%TD*%
D21*
%TO.P,BZ1,1,+*%
%TO.N,Net-(BZ1-+)*%
X143266000Y-120650000D03*
D13*
%TO.P,BZ1,2,-*%
%TO.N,GND*%
X150866000Y-120650000D03*
%TD*%
D22*
%TO.N,C_1*%
X95250000Y-80772000D03*
X103378000Y-90932000D03*
X88392000Y-85852000D03*
X101854000Y-88900000D03*
X92456000Y-82042000D03*
%TO.N,GND*%
X121666000Y-109728000D03*
X129032000Y-113792000D03*
X104394000Y-77978000D03*
X132080000Y-108966000D03*
X116586000Y-114808000D03*
X113792000Y-106680000D03*
X101600000Y-78486000D03*
X108965996Y-75438000D03*
X125984000Y-111506000D03*
X136906000Y-104902000D03*
X115824000Y-104394000D03*
X130048000Y-111251966D03*
X106680000Y-97790000D03*
X144018000Y-110490000D03*
%TO.N,RX1*%
X100330000Y-106426000D03*
X114554000Y-120396000D03*
X98298000Y-98552000D03*
X114808000Y-87122000D03*
X104902000Y-108712000D03*
X107442000Y-110744000D03*
X99314000Y-101092000D03*
X110490000Y-110236000D03*
X100330000Y-108712000D03*
X112776000Y-118872000D03*
%TO.N,TX1*%
X119634000Y-86868000D03*
X114300000Y-85090000D03*
X102362000Y-86614000D03*
X98806000Y-82804000D03*
X109220000Y-84328000D03*
X93218000Y-96266000D03*
%TO.N,Io0*%
X98044000Y-107696000D03*
X115316000Y-107696000D03*
X134366000Y-88900000D03*
X90932000Y-103378000D03*
X109474000Y-105410000D03*
X126746000Y-91186000D03*
X117602000Y-96266000D03*
%TO.N,VBUS*%
X154178000Y-97790000D03*
X140208000Y-104648000D03*
X147503948Y-84628701D03*
X135636000Y-102870000D03*
X123444000Y-110744000D03*
X152908000Y-94488000D03*
X157734000Y-92202000D03*
X150876000Y-104648000D03*
X121666000Y-102870000D03*
X140462000Y-107950000D03*
X127508000Y-106426000D03*
%TO.N,+5V*%
X129239299Y-109728000D03*
X152400000Y-79248000D03*
X133858000Y-103124000D03*
X150690195Y-82356740D03*
X158750000Y-83820000D03*
%TO.N,EN*%
X128016000Y-99568000D03*
X122682000Y-101854000D03*
X130302000Y-75184000D03*
X86105988Y-73954008D03*
X110236000Y-78486000D03*
X137160000Y-90932000D03*
X99568000Y-76962000D03*
X92710000Y-77978000D03*
X135890000Y-91948000D03*
X131572000Y-85852000D03*
%TO.N,Net-(U4-XI)*%
X151130000Y-103378000D03*
%TO.N,+BATT*%
X133096000Y-108966000D03*
X154686000Y-99314000D03*
X147574000Y-113792000D03*
X155956000Y-89408000D03*
X144272000Y-114300000D03*
X135636000Y-112522000D03*
X151892000Y-110490000D03*
X137668000Y-113538000D03*
X159512000Y-115062000D03*
%TO.N,RX*%
X122682000Y-90932000D03*
X129032000Y-96266000D03*
X148844000Y-94996000D03*
X122174000Y-78232000D03*
X149098000Y-118618000D03*
X124460000Y-93472000D03*
X153670000Y-117348000D03*
X124968000Y-95758000D03*
%TO.N,Net-(D3-A)*%
X118872000Y-100584000D03*
X126238000Y-89916000D03*
%TO.N,TX*%
X152146000Y-117094000D03*
X148082000Y-100838000D03*
X146812004Y-98552000D03*
X160020000Y-118364000D03*
X159512000Y-113792000D03*
X154686000Y-102362000D03*
X152654000Y-101346000D03*
X128016000Y-80518000D03*
X147320000Y-117856000D03*
X146050000Y-123952000D03*
X148082000Y-95757994D03*
X128016000Y-125222000D03*
X133350000Y-93472000D03*
X129286000Y-86106000D03*
%TO.N,D+*%
X148336000Y-90424000D03*
X153416000Y-80772000D03*
%TO.N,D-*%
X149352000Y-89154000D03*
X155702000Y-87122000D03*
%TO.N,Motor+*%
X116586000Y-93980000D03*
X115824000Y-96520000D03*
X120650000Y-122428000D03*
X116586000Y-86360000D03*
%TO.N,SCL*%
X85344000Y-121666000D03*
X87376000Y-79502000D03*
X87122000Y-97536000D03*
X101346000Y-74930000D03*
X98298000Y-75692000D03*
X113284000Y-75946000D03*
X119634000Y-78486000D03*
X89408000Y-97028000D03*
X86111143Y-76966143D03*
X87122000Y-101854000D03*
X110490000Y-74168000D03*
X88900000Y-75184000D03*
X88646000Y-121920000D03*
X104902000Y-106680000D03*
X85090000Y-103124000D03*
%TO.N,SDA*%
X103886000Y-80010000D03*
X105156000Y-121666000D03*
X103124000Y-106680000D03*
X105918000Y-103378000D03*
X93472000Y-122936000D03*
X112776000Y-111506000D03*
X85344000Y-78994000D03*
X111252000Y-118872000D03*
X107188000Y-120396000D03*
X106934000Y-112014000D03*
X105156000Y-123952000D03*
X88900000Y-77470000D03*
X88392000Y-122935996D03*
X116078000Y-78994000D03*
X99568000Y-78740000D03*
X95758000Y-123698000D03*
%TO.N,RTS*%
X132334000Y-100076000D03*
X136906000Y-99314000D03*
%TO.N,Select*%
X141478000Y-113030000D03*
X123190000Y-112776000D03*
X109474000Y-108966000D03*
X102870000Y-105410000D03*
X101854000Y-84836000D03*
X119380000Y-108966000D03*
%TO.N,Net-(U2-ADJ)*%
X150876000Y-78740000D03*
X148590000Y-84074000D03*
%TO.N,B_check*%
X104648000Y-87376000D03*
X86614000Y-92202000D03*
X135636000Y-124714000D03*
X90932000Y-91440000D03*
X88392000Y-104648000D03*
X136398000Y-114554000D03*
X137414000Y-116332000D03*
X100076000Y-88392000D03*
X121920000Y-121920000D03*
X99568000Y-118364000D03*
X139446000Y-119380000D03*
X88138000Y-100584000D03*
%TO.N,Net-(U5-~{STDBY})*%
X138684000Y-107442000D03*
X125730000Y-105918000D03*
%TO.N,Net-(U5-~{CHRG})*%
X137668000Y-105918000D03*
X135890000Y-110998000D03*
%TO.N,Buzz+*%
X114808000Y-90849998D03*
X108966000Y-89662000D03*
X114300000Y-99822000D03*
X113030000Y-89662000D03*
X114046000Y-96774000D03*
X112014000Y-93726000D03*
%TO.N,Enb*%
X146050000Y-97282004D03*
X144526000Y-85090000D03*
%TO.N,T_IRQ*%
X111760000Y-86360000D03*
X108966000Y-82804000D03*
X86192084Y-118872000D03*
X108966000Y-78994000D03*
X91694000Y-118872000D03*
X86106000Y-74954010D03*
%TO.N,T_CS*%
X101600000Y-103378000D03*
X100330000Y-89916000D03*
%TO.N,CS*%
X120142000Y-93980000D03*
X105664000Y-95504000D03*
%TO.N,DC*%
X109474000Y-90678000D03*
X101092000Y-95758000D03*
%TO.N,RST*%
X103886000Y-96266000D03*
X115316000Y-88646000D03*
%TO.N,SCK*%
X126746000Y-74168000D03*
X99060000Y-105664000D03*
X126492000Y-83312000D03*
X106426000Y-124968000D03*
X120904000Y-73406000D03*
X101600000Y-112014000D03*
X126492000Y-76200000D03*
%TO.N,MISO*%
X119126000Y-74168000D03*
X117348000Y-77216000D03*
X100330000Y-120650000D03*
X100584000Y-117094000D03*
X120650000Y-84328000D03*
%TO.N,MOSI*%
X121666000Y-75946000D03*
X115824000Y-90424000D03*
X120650000Y-90170000D03*
X105410000Y-96774000D03*
X110998000Y-94742000D03*
X109728000Y-96520000D03*
X98298000Y-113792000D03*
%TO.N,+3.3V*%
X141732000Y-77978000D03*
X111760000Y-78486000D03*
X133858000Y-101092000D03*
X118110000Y-83565992D03*
X113030000Y-87122000D03*
X104140000Y-88646000D03*
X110263000Y-124687000D03*
X137668000Y-98044000D03*
X129032000Y-98806000D03*
X141986000Y-116840000D03*
X140208000Y-97536000D03*
X121412000Y-98044000D03*
X123190000Y-98044000D03*
X152654000Y-109220000D03*
X134874000Y-118618000D03*
X119634000Y-124714000D03*
X98806000Y-84328000D03*
X149098000Y-96266000D03*
X138938000Y-101600000D03*
X104648000Y-91948000D03*
X102870000Y-98298000D03*
X150876000Y-116586000D03*
X105410000Y-93726000D03*
%TO.N,C_2*%
X99568000Y-80264000D03*
X93218000Y-80010000D03*
%TO.N,Fail_safe*%
X95758000Y-76708000D03*
%TD*%
D23*
%TO.N,SDA*%
X85344000Y-78994000D02*
X84074000Y-77724000D01*
X84074000Y-77724000D02*
X82042000Y-77724000D01*
X82042000Y-77724000D02*
X82042000Y-121666000D01*
X82042000Y-121666000D02*
X83311996Y-122935996D01*
X83311996Y-122935996D02*
X88392000Y-122935996D01*
D24*
%TO.N,TX*%
X129286000Y-81788000D02*
X134366000Y-76708000D01*
X134366000Y-76708000D02*
X140208000Y-76708000D01*
X129286000Y-81788000D02*
X128016000Y-80518000D01*
X129286000Y-86106000D02*
X129286000Y-81788000D01*
%TO.N,SCL*%
X110490000Y-74168000D02*
X109982000Y-74676000D01*
X109982000Y-74676000D02*
X101600000Y-74676000D01*
X101600000Y-74676000D02*
X101346000Y-74930000D01*
%TO.N,TX*%
X159512000Y-113792000D02*
X159512000Y-104140000D01*
X159512000Y-104140000D02*
X159258000Y-103886000D01*
X159258000Y-103886000D02*
X156210000Y-103886000D01*
X156210000Y-103886000D02*
X154686000Y-102362000D01*
%TO.N,C_1*%
X95250000Y-80772000D02*
X94742000Y-81280000D01*
X90372000Y-88864000D02*
X88392000Y-86884000D01*
X94742000Y-81280000D02*
X93218000Y-81280000D01*
X101854000Y-88900000D02*
X101854000Y-89408000D01*
X101854000Y-89408000D02*
X103378000Y-90932000D01*
X83872000Y-88864000D02*
X90372000Y-88864000D01*
X88392000Y-86884000D02*
X88392000Y-85852000D01*
X92456000Y-82042000D02*
X93218000Y-81280000D01*
%TO.N,GND*%
X132080000Y-108712000D02*
X132080000Y-108966000D01*
X112363000Y-99219000D02*
X109728000Y-101854000D01*
X91098000Y-85090000D02*
X90372000Y-84364000D01*
X90626000Y-81990000D02*
X91948000Y-83312000D01*
X106680000Y-101092000D02*
X106680000Y-97790000D01*
X132080000Y-108966000D02*
X132080000Y-109982000D01*
X132080000Y-109982000D02*
X130810034Y-111251966D01*
X101251347Y-81374653D02*
X101600000Y-81026000D01*
D23*
X160030000Y-76180000D02*
X160030000Y-84820000D01*
D24*
X92202000Y-109386000D02*
X92202000Y-97790000D01*
X91948000Y-97702000D02*
X91948000Y-97536000D01*
X90372000Y-111216000D02*
X83872000Y-111216000D01*
X83618000Y-116114000D02*
X90118000Y-116114000D01*
X150866000Y-118354000D02*
X150866000Y-120650000D01*
X84126000Y-80482000D02*
X90626000Y-80482000D01*
X101600000Y-81026000D02*
X101600000Y-78486000D01*
X108965996Y-75946004D02*
X108965996Y-75438000D01*
X91948000Y-83312000D02*
X97018695Y-83312000D01*
X130810034Y-111251966D02*
X130048000Y-111251966D01*
X144018000Y-110490000D02*
X144018000Y-111506000D01*
X144018000Y-111506000D02*
X150866000Y-118354000D01*
X136906000Y-104902000D02*
X135890000Y-104902000D01*
X83872000Y-84364000D02*
X90372000Y-84364000D01*
X135890000Y-104902000D02*
X132080000Y-108712000D01*
X91948000Y-97536000D02*
X91948000Y-85090000D01*
X90372000Y-99278000D02*
X91948000Y-97702000D01*
X109728000Y-101854000D02*
X107442000Y-101854000D01*
D23*
X155850000Y-76180000D02*
X160030000Y-76180000D01*
D24*
X90626000Y-80482000D02*
X90626000Y-81990000D01*
X121666000Y-109728000D02*
X116586000Y-114808000D01*
D23*
X113792000Y-106680000D02*
X115824000Y-104648000D01*
D24*
X90372000Y-99278000D02*
X83872000Y-99278000D01*
D23*
X115824000Y-104648000D02*
X115824000Y-104394000D01*
D24*
X90372000Y-111216000D02*
X92202000Y-109386000D01*
X91948000Y-85090000D02*
X91098000Y-85090000D01*
X98956042Y-81374653D02*
X101251347Y-81374653D01*
X84126000Y-84110000D02*
X83872000Y-84364000D01*
X97018695Y-83312000D02*
X98956042Y-81374653D01*
D23*
X155850000Y-84820000D02*
X160030000Y-84820000D01*
D24*
X107442000Y-101854000D02*
X106680000Y-101092000D01*
X125984000Y-111506000D02*
X126746000Y-111506000D01*
X92202000Y-97790000D02*
X91948000Y-97536000D01*
X84126000Y-80482000D02*
X84126000Y-84110000D01*
X126746000Y-111506000D02*
X129032000Y-113792000D01*
X106934000Y-77978000D02*
X108965996Y-75946004D01*
X104394000Y-77978000D02*
X106934000Y-77978000D01*
%TO.N,RX1*%
X114300000Y-120396000D02*
X112776000Y-118872000D01*
X107950000Y-110236000D02*
X107442000Y-110744000D01*
X99822000Y-84836000D02*
X102870000Y-81788000D01*
X100330000Y-105664000D02*
X99822000Y-105156000D01*
X114554000Y-120396000D02*
X114300000Y-120396000D01*
X99822000Y-101600000D02*
X99314000Y-101092000D01*
X99822000Y-105156000D02*
X99822000Y-101600000D01*
X98298000Y-86360000D02*
X99822000Y-84836000D01*
X104902000Y-108712000D02*
X100330000Y-108712000D01*
X107950000Y-81788000D02*
X109474000Y-81788000D01*
X102870000Y-81788000D02*
X107950000Y-81788000D01*
X100330000Y-106426000D02*
X100330000Y-105664000D01*
X109474000Y-81788000D02*
X114808000Y-87122000D01*
X110490000Y-110236000D02*
X107950000Y-110236000D01*
X98298000Y-98552000D02*
X98298000Y-86360000D01*
%TO.N,TX1*%
X117856000Y-85090000D02*
X114300000Y-85090000D01*
X119634000Y-86868000D02*
X117856000Y-85090000D01*
X109220000Y-84328000D02*
X104648000Y-84328000D01*
X104648000Y-84328000D02*
X102362000Y-86614000D01*
X97028000Y-84582000D02*
X98806000Y-82804000D01*
X92964000Y-84582000D02*
X97028000Y-84582000D01*
X92964000Y-96012000D02*
X92964000Y-84582000D01*
X93218000Y-96266000D02*
X92964000Y-96012000D01*
%TO.N,Io0*%
X107188000Y-107696000D02*
X109474000Y-105410000D01*
X116840000Y-96774000D02*
X117094000Y-96774000D01*
X98044000Y-107696000D02*
X107188000Y-107696000D01*
D25*
X134366000Y-88900000D02*
X134366000Y-89916000D01*
D24*
X117094000Y-96774000D02*
X117602000Y-96266000D01*
X90372000Y-106716000D02*
X90372000Y-103938000D01*
X126746000Y-91186000D02*
X133096000Y-91186000D01*
X115316000Y-107696000D02*
X116840000Y-106172000D01*
X116840000Y-106172000D02*
X116840000Y-96774000D01*
D25*
X134366000Y-89916000D02*
X134112000Y-90170000D01*
D24*
X83872000Y-106716000D02*
X90372000Y-106716000D01*
X133096000Y-91186000D02*
X134112000Y-90170000D01*
X90372000Y-103938000D02*
X90932000Y-103378000D01*
%TO.N,VBUS*%
X133604000Y-101854000D02*
X129032000Y-101854000D01*
X141732000Y-104648000D02*
X141097000Y-105283000D01*
X140208000Y-104648000D02*
X140462000Y-104648000D01*
X140970000Y-107442000D02*
X140970000Y-105410000D01*
X133604000Y-101854000D02*
X134620000Y-101854000D01*
X146812000Y-85320649D02*
X147503948Y-84628701D01*
X146812000Y-90424000D02*
X146812000Y-85320649D01*
X140462000Y-107950000D02*
X140970000Y-107442000D01*
X141097000Y-105283000D02*
X140970000Y-105410000D01*
X123444000Y-104648000D02*
X123444000Y-110744000D01*
X128778000Y-102870000D02*
X128270000Y-103378000D01*
X128270000Y-105664000D02*
X127508000Y-106426000D01*
X121666000Y-102870000D02*
X123444000Y-104648000D01*
X155448000Y-94488000D02*
X152908000Y-94488000D01*
X128270000Y-103378000D02*
X128270000Y-105664000D01*
X128778000Y-102108000D02*
X128778000Y-102870000D01*
X134620000Y-101854000D02*
X135636000Y-102870000D01*
X154178000Y-97790000D02*
X146812000Y-90424000D01*
X150876000Y-104648000D02*
X141732000Y-104648000D01*
X140462000Y-104648000D02*
X141097000Y-105283000D01*
X157734000Y-92202000D02*
X155448000Y-94488000D01*
X129032000Y-101854000D02*
X128778000Y-102108000D01*
%TO.N,+5V*%
X129239299Y-107742701D02*
X129239299Y-109728000D01*
X150690195Y-82227805D02*
X152400000Y-80518000D01*
X157734000Y-79248000D02*
X158242000Y-79756000D01*
X150690195Y-82356740D02*
X150690195Y-82227805D01*
X158242000Y-79756000D02*
X158242000Y-82296000D01*
X152400000Y-80518000D02*
X152400000Y-79248000D01*
X152400000Y-79248000D02*
X157734000Y-79248000D01*
X158750000Y-82804000D02*
X158750000Y-83820000D01*
X158242000Y-82296000D02*
X158750000Y-82804000D01*
X133858000Y-103124000D02*
X129239299Y-107742701D01*
%TO.N,EN*%
X135890000Y-91948000D02*
X127762000Y-91948000D01*
X83618000Y-120614000D02*
X90118000Y-120614000D01*
X81026000Y-75692000D02*
X82763992Y-73954008D01*
X97028000Y-76962000D02*
X99568000Y-76962000D01*
X110236000Y-75955305D02*
X110236000Y-78486000D01*
X127762000Y-91948000D02*
X127000000Y-92710000D01*
X128524000Y-101092000D02*
X128016000Y-100584000D01*
X137160000Y-90932000D02*
X137160000Y-89916000D01*
X90118000Y-120614000D02*
X90118000Y-123242000D01*
X122682000Y-101854000D02*
X127762000Y-101854000D01*
X127000000Y-92710000D02*
X127000000Y-95504000D01*
X96774000Y-77216000D02*
X97028000Y-76962000D01*
X130302000Y-75184000D02*
X111007305Y-75184000D01*
X83566000Y-124206000D02*
X81026000Y-121666000D01*
X127762000Y-101854000D02*
X128524000Y-101092000D01*
X81026000Y-121666000D02*
X81026000Y-75692000D01*
X89154000Y-124206000D02*
X83566000Y-124206000D01*
X92710000Y-77978000D02*
X96012000Y-77978000D01*
X128016000Y-100584000D02*
X128016000Y-99568000D01*
X96012000Y-77978000D02*
X96774000Y-77216000D01*
X134112000Y-86868000D02*
X132588000Y-86868000D01*
X111007305Y-75184000D02*
X110236000Y-75955305D01*
X90118000Y-123242000D02*
X89154000Y-124206000D01*
X128016000Y-96520000D02*
X128016000Y-99568000D01*
X132588000Y-86868000D02*
X131572000Y-85852000D01*
X137160000Y-89916000D02*
X134112000Y-86868000D01*
X127000000Y-95504000D02*
X128016000Y-96520000D01*
X82763992Y-73954008D02*
X86105988Y-73954008D01*
%TO.N,Net-(U4-XI)*%
X151130000Y-103378000D02*
X148246000Y-103378000D01*
X148246000Y-103378000D02*
X146214000Y-101346000D01*
%TO.N,+BATT*%
X139700000Y-115570000D02*
X137668000Y-113538000D01*
X148590000Y-113792000D02*
X147574000Y-113792000D01*
X133096000Y-108966000D02*
X133096000Y-109982000D01*
X160782000Y-91186000D02*
X160782000Y-98806000D01*
X133096000Y-109982000D02*
X135636000Y-112522000D01*
X155956000Y-89408000D02*
X157480000Y-90932000D01*
X155448000Y-98552000D02*
X160528000Y-98552000D01*
X154686000Y-99314000D02*
X155448000Y-98552000D01*
X143002000Y-115570000D02*
X140716000Y-115570000D01*
X157480000Y-90932000D02*
X160528000Y-90932000D01*
X144272000Y-114300000D02*
X143002000Y-115570000D01*
X140716000Y-115570000D02*
X139700000Y-115570000D01*
X151892000Y-110490000D02*
X148590000Y-113792000D01*
X160528000Y-98552000D02*
X160782000Y-98806000D01*
X160782000Y-98806000D02*
X160782000Y-113792000D01*
X160528000Y-90932000D02*
X160782000Y-91186000D01*
X160782000Y-113792000D02*
X159512000Y-115062000D01*
%TO.N,RX*%
X153670000Y-117348000D02*
X153670000Y-98806000D01*
X147066000Y-120650000D02*
X149098000Y-118618000D01*
X123698000Y-89916000D02*
X123698000Y-88646000D01*
X147066000Y-127508000D02*
X147066000Y-120650000D01*
X151638000Y-96774000D02*
X150622000Y-96774000D01*
X137414000Y-96266000D02*
X129032000Y-96266000D01*
X123698000Y-84074000D02*
X122174000Y-82550000D01*
X150622000Y-96774000D02*
X150622000Y-97282000D01*
X142240000Y-99822000D02*
X140970000Y-99822000D01*
X149860000Y-99822000D02*
X142240000Y-99822000D01*
X123698000Y-88646000D02*
X123698000Y-84074000D01*
X150368000Y-96012000D02*
X150622000Y-96266000D01*
X122174000Y-82550000D02*
X122174000Y-78232000D01*
X149352000Y-94996000D02*
X150368000Y-96012000D01*
X148844000Y-94996000D02*
X149352000Y-94996000D01*
X150622000Y-97282000D02*
X149860000Y-98044000D01*
X140970000Y-99822000D02*
X139446000Y-98298000D01*
X124460000Y-122936000D02*
X128524000Y-127000000D01*
X153670000Y-98806000D02*
X151638000Y-96774000D01*
X150622000Y-96266000D02*
X150622000Y-96774000D01*
X122682000Y-90932000D02*
X123698000Y-89916000D01*
X146558000Y-127000000D02*
X147066000Y-127508000D01*
X128524000Y-127000000D02*
X146558000Y-127000000D01*
X124460000Y-119380000D02*
X124460000Y-122936000D01*
X124968000Y-93980000D02*
X124460000Y-93472000D01*
X124968000Y-95758000D02*
X124968000Y-93980000D01*
X139446000Y-98298000D02*
X137414000Y-96266000D01*
X149860000Y-98044000D02*
X149860000Y-99822000D01*
%TO.N,Net-(D3-A)*%
X123190000Y-92964000D02*
X123190000Y-94234000D01*
X123190000Y-94234000D02*
X118872000Y-98552000D01*
X118872000Y-98552000D02*
X118872000Y-100584000D01*
X126238000Y-89916000D02*
X123190000Y-92964000D01*
%TO.N,TX*%
X152146000Y-118872000D02*
X152400000Y-119126000D01*
X148082000Y-97282004D02*
X146812004Y-98552000D01*
X140208000Y-76708000D02*
X144018000Y-76708000D01*
X145542000Y-93217994D02*
X148082000Y-95757994D01*
X141478000Y-88900000D02*
X140208000Y-87630000D01*
X136906000Y-93472000D02*
X141478000Y-88900000D01*
X148082000Y-95757994D02*
X148082000Y-97282004D01*
X153162000Y-118364000D02*
X159766000Y-118364000D01*
X152654000Y-101346000D02*
X148590000Y-101346000D01*
X133350000Y-93472000D02*
X136906000Y-93472000D01*
X152146000Y-117094000D02*
X152146000Y-118872000D01*
X140208000Y-87630000D02*
X140208000Y-76708000D01*
X128016000Y-120396000D02*
X128016000Y-125222000D01*
X144018000Y-76708000D02*
X145542000Y-78232000D01*
X145542000Y-78232000D02*
X145542000Y-93217994D01*
X146050000Y-123952000D02*
X146050000Y-119126000D01*
X148590000Y-101346000D02*
X148082000Y-100838000D01*
X127000000Y-119380000D02*
X128016000Y-120396000D01*
X152400000Y-119126000D02*
X153162000Y-118364000D01*
X159766000Y-118364000D02*
X160020000Y-118364000D01*
X146050000Y-119126000D02*
X147320000Y-117856000D01*
D26*
%TO.N,D+*%
X153416000Y-84328000D02*
X152908000Y-84836000D01*
X149098000Y-84836000D02*
X148336000Y-85598000D01*
X152908000Y-84836000D02*
X149098000Y-84836000D01*
X148336000Y-85598000D02*
X148336000Y-90424000D01*
X153416000Y-80772000D02*
X153416000Y-84328000D01*
%TO.N,D-*%
X155194000Y-87630000D02*
X155194000Y-88900000D01*
X155194000Y-88900000D02*
X149606000Y-88900000D01*
X155702000Y-87122000D02*
X155194000Y-87630000D01*
X149606000Y-88900000D02*
X149352000Y-89154000D01*
D23*
%TO.N,Motor+*%
X114046000Y-102375251D02*
X115824000Y-100597251D01*
D24*
X116586000Y-93980000D02*
X116586000Y-86360000D01*
X105156000Y-112522000D02*
X105156000Y-111252000D01*
X114046000Y-117856000D02*
X103886000Y-117856000D01*
X105156000Y-111252000D02*
X105169251Y-111252000D01*
X103886000Y-117856000D02*
X103632000Y-117602000D01*
X103632000Y-116064749D02*
X103632000Y-114046000D01*
D23*
X109220000Y-107442000D02*
X110998000Y-105664000D01*
X105169251Y-111252000D02*
X108979251Y-107442000D01*
D24*
X115824000Y-100597251D02*
X115824000Y-96520000D01*
D23*
X114046000Y-105664000D02*
X114046000Y-102375251D01*
X110998000Y-105664000D02*
X114046000Y-105664000D01*
D24*
X116840000Y-120650000D02*
X114046000Y-117856000D01*
X103632000Y-117602000D02*
X103632000Y-116064749D01*
X103632000Y-114046000D02*
X105156000Y-112522000D01*
X120650000Y-122428000D02*
X118872000Y-120650000D01*
X118872000Y-120650000D02*
X118618000Y-120650000D01*
D23*
X108979251Y-107442000D02*
X109220000Y-107442000D01*
D24*
X118618000Y-120650000D02*
X116840000Y-120650000D01*
%TO.N,SCL*%
X85598000Y-121920000D02*
X88646000Y-121920000D01*
X98298000Y-75692000D02*
X94488000Y-75692000D01*
X87630000Y-97028000D02*
X87122000Y-97536000D01*
X89408000Y-97028000D02*
X87630000Y-97028000D01*
X88900000Y-74676000D02*
X88900000Y-75184000D01*
X86111143Y-76966143D02*
X87376000Y-78231000D01*
X87376000Y-78231000D02*
X87376000Y-79502000D01*
X93726000Y-74930000D02*
X91948000Y-74930000D01*
X91948000Y-74930000D02*
X91694000Y-74676000D01*
X87122000Y-101854000D02*
X86360000Y-101854000D01*
X113284000Y-75946000D02*
X117348000Y-75946000D01*
X104902000Y-106680000D02*
X108458000Y-103124000D01*
X119634000Y-78232000D02*
X119634000Y-78486000D01*
X91440000Y-74422000D02*
X89154000Y-74422000D01*
X86360000Y-101854000D02*
X85090000Y-103124000D01*
X110998000Y-103124000D02*
X112363000Y-101759000D01*
X94488000Y-75692000D02*
X93726000Y-74930000D01*
X89154000Y-74422000D02*
X88900000Y-74676000D01*
X91694000Y-74676000D02*
X91440000Y-74422000D01*
X108458000Y-103124000D02*
X110998000Y-103124000D01*
X117348000Y-75946000D02*
X119634000Y-78232000D01*
X85344000Y-121666000D02*
X85598000Y-121920000D01*
D23*
%TO.N,SDA*%
X105156000Y-121666000D02*
X105156000Y-123952000D01*
X98806000Y-77978000D02*
X97536000Y-77978000D01*
X116078000Y-78994000D02*
X113030000Y-78994000D01*
X109982000Y-120396000D02*
X107188000Y-120396000D01*
X97536000Y-77978000D02*
X96774000Y-78740000D01*
X94996000Y-122936000D02*
X95758000Y-123698000D01*
X90170000Y-78740000D02*
X88900000Y-77470000D01*
D24*
X103124000Y-106680000D02*
X105918000Y-103886000D01*
X105918000Y-103886000D02*
X105918000Y-103378000D01*
D23*
X111252000Y-118872000D02*
X111252000Y-119126000D01*
X113030000Y-78994000D02*
X111252000Y-80772000D01*
X108458000Y-80772000D02*
X107950000Y-80772000D01*
D24*
X107442000Y-111506000D02*
X106934000Y-112014000D01*
D23*
X99568000Y-78740000D02*
X98806000Y-77978000D01*
X104140000Y-79756000D02*
X103886000Y-80010000D01*
X94996000Y-78740000D02*
X90170000Y-78740000D01*
X106934000Y-79756000D02*
X104140000Y-79756000D01*
X107950000Y-80772000D02*
X106934000Y-79756000D01*
X93472000Y-122936000D02*
X94996000Y-122936000D01*
D24*
X112776000Y-111506000D02*
X107442000Y-111506000D01*
D23*
X111252000Y-119126000D02*
X109982000Y-120396000D01*
X111252000Y-80772000D02*
X108458000Y-80772000D01*
X96774000Y-78740000D02*
X94996000Y-78740000D01*
D24*
%TO.N,RTS*%
X136906000Y-99314000D02*
X133096000Y-99314000D01*
X133096000Y-99314000D02*
X132334000Y-100076000D01*
%TO.N,Select*%
X100330000Y-104648000D02*
X100330000Y-99822000D01*
X100330000Y-99822000D02*
X99060000Y-98552000D01*
X141478000Y-113030000D02*
X144526000Y-113030000D01*
X145034000Y-122936000D02*
X142240000Y-125730000D01*
X99060000Y-98552000D02*
X99060000Y-89163305D01*
X102870000Y-105410000D02*
X101092000Y-105410000D01*
X99060000Y-89163305D02*
X98843000Y-88946305D01*
X142240000Y-125730000D02*
X134874000Y-125730000D01*
X134874000Y-125730000D02*
X134620000Y-125984000D01*
X101092000Y-105410000D02*
X100330000Y-104648000D01*
X119380000Y-108966000D02*
X109474000Y-108966000D01*
X98843000Y-87847000D02*
X101854000Y-84836000D01*
X123190000Y-112776000D02*
X123698000Y-113284000D01*
X144526000Y-113030000D02*
X145034000Y-113538000D01*
X134620000Y-120650000D02*
X127254000Y-113284000D01*
X134620000Y-125984000D02*
X134620000Y-120650000D01*
X145034000Y-113538000D02*
X145034000Y-122936000D01*
X127254000Y-113284000D02*
X123698000Y-113284000D01*
X98843000Y-88946305D02*
X98843000Y-87847000D01*
%TO.N,Net-(U2-ADJ)*%
X148590000Y-81026000D02*
X148590000Y-84074000D01*
X150876000Y-78740000D02*
X148590000Y-81026000D01*
%TO.N,B_check*%
X100838000Y-87630000D02*
X104394000Y-87630000D01*
D23*
X121666000Y-122174000D02*
X121920000Y-121920000D01*
D24*
X139446000Y-119380000D02*
X137668000Y-119380000D01*
D23*
X102108000Y-118872000D02*
X102108000Y-124206000D01*
D24*
X135890000Y-124460000D02*
X135636000Y-124714000D01*
D23*
X119380000Y-126492000D02*
X121666000Y-124206000D01*
D24*
X88392000Y-104648000D02*
X88138000Y-104394000D01*
X90170000Y-92202000D02*
X90932000Y-91440000D01*
X137414000Y-115570000D02*
X136398000Y-114554000D01*
X137414000Y-116332000D02*
X137414000Y-115570000D01*
X104394000Y-87630000D02*
X104648000Y-87376000D01*
X135890000Y-121158000D02*
X135890000Y-124460000D01*
X102108000Y-118872000D02*
X101600000Y-118364000D01*
X101600000Y-118364000D02*
X99568000Y-118364000D01*
D23*
X121666000Y-124206000D02*
X121666000Y-122174000D01*
D24*
X88138000Y-104394000D02*
X88138000Y-100584000D01*
D23*
X104394000Y-126492000D02*
X119380000Y-126492000D01*
D24*
X100076000Y-88392000D02*
X100838000Y-87630000D01*
D23*
X102108000Y-124206000D02*
X104394000Y-126492000D01*
D24*
X86614000Y-92202000D02*
X90170000Y-92202000D01*
X137668000Y-119380000D02*
X135890000Y-121158000D01*
%TO.N,Net-(U5-~{STDBY})*%
X130800695Y-113284000D02*
X125730000Y-108213305D01*
X125730000Y-108213305D02*
X125730000Y-105918000D01*
X139446000Y-108204000D02*
X139446000Y-109728000D01*
X138684000Y-107442000D02*
X139446000Y-108204000D01*
X139446000Y-109728000D02*
X136652000Y-112522000D01*
X136652000Y-113284000D02*
X130800695Y-113284000D01*
X136652000Y-112522000D02*
X136652000Y-113284000D01*
%TO.N,Net-(U5-~{CHRG})*%
X137668000Y-109220000D02*
X137668000Y-105918000D01*
X135890000Y-110998000D02*
X137668000Y-109220000D01*
%TO.N,Buzz+*%
X114300000Y-97028000D02*
X114046000Y-96774000D01*
X112522000Y-93726000D02*
X112014000Y-93726000D01*
X112522000Y-89154000D02*
X113030000Y-89662000D01*
X114808000Y-91440000D02*
X112522000Y-93726000D01*
X114808000Y-90849998D02*
X114808000Y-91440000D01*
X109474000Y-89154000D02*
X112522000Y-89154000D01*
X108966000Y-89662000D02*
X109474000Y-89154000D01*
X114300000Y-99822000D02*
X114300000Y-97028000D01*
%TO.N,Enb*%
X144526000Y-85090000D02*
X144526000Y-95758004D01*
X144526000Y-95758004D02*
X146050000Y-97282004D01*
%TO.N,T_IRQ*%
X86830988Y-74229022D02*
X87146010Y-73914000D01*
X86381002Y-74679008D02*
X86406293Y-74679008D01*
X111760000Y-85344000D02*
X110490000Y-84074000D01*
X111760000Y-86360000D02*
X111760000Y-85344000D01*
X86406293Y-74679008D02*
X86830988Y-74254313D01*
X86830988Y-74254313D02*
X86830988Y-74229022D01*
X91694000Y-118872000D02*
X86192084Y-118872000D01*
X86106000Y-74954010D02*
X86381002Y-74679008D01*
X109220000Y-82804000D02*
X108966000Y-82804000D01*
X110490000Y-84074000D02*
X109220000Y-82804000D01*
X103632000Y-78994000D02*
X108966000Y-78994000D01*
X87146010Y-73914000D02*
X98552000Y-73914000D01*
X98552000Y-73914000D02*
X103632000Y-78994000D01*
%TO.N,T_CS*%
X101600000Y-98806000D02*
X100076000Y-97282000D01*
X100076000Y-90170000D02*
X100330000Y-89916000D01*
X101600000Y-103378000D02*
X101600000Y-98806000D01*
X100076000Y-97282000D02*
X100076000Y-90170000D01*
%TO.N,CS*%
X119380000Y-94742000D02*
X120142000Y-93980000D01*
X105664000Y-95504000D02*
X118618000Y-95504000D01*
X118618000Y-95504000D02*
X119380000Y-94742000D01*
%TO.N,DC*%
X101854000Y-94996000D02*
X101854000Y-92964000D01*
X107188000Y-92964000D02*
X109474000Y-90678000D01*
X101092000Y-95758000D02*
X101854000Y-94996000D01*
X101854000Y-92964000D02*
X107188000Y-92964000D01*
%TO.N,RST*%
X115316000Y-88646000D02*
X109220000Y-94742000D01*
D23*
X105410000Y-94742000D02*
X103886000Y-96266000D01*
X109220000Y-94742000D02*
X105410000Y-94742000D01*
%TO.N,SCK*%
X101600000Y-116586000D02*
X106426000Y-121412000D01*
X101600000Y-112014000D02*
X101600000Y-116586000D01*
D24*
X99060000Y-102108000D02*
X98552000Y-101600000D01*
X99060000Y-105664000D02*
X99060000Y-102108000D01*
D23*
X121666000Y-74168000D02*
X120904000Y-73406000D01*
X106426000Y-121412000D02*
X106426000Y-124968000D01*
X126746000Y-74168000D02*
X121666000Y-74168000D01*
D24*
X98552000Y-101600000D02*
X95504000Y-101600000D01*
D23*
X126492000Y-76200000D02*
X126492000Y-83312000D01*
%TO.N,MISO*%
X117348000Y-77470000D02*
X119380000Y-79502000D01*
D24*
X95504000Y-106680000D02*
X95758000Y-106680000D01*
X100330000Y-120650000D02*
X96266000Y-124714000D01*
D23*
X91440000Y-73152000D02*
X91694000Y-73406000D01*
X82296000Y-73152000D02*
X91440000Y-73152000D01*
X119634000Y-83312000D02*
X120650000Y-84328000D01*
D24*
X99822000Y-110490000D02*
X100584000Y-111252000D01*
D23*
X91694000Y-73406000D02*
X118364000Y-73406000D01*
D24*
X82042000Y-73152000D02*
X82296000Y-73152000D01*
D23*
X118364000Y-73406000D02*
X119126000Y-74168000D01*
X119380000Y-79502000D02*
X119380000Y-82042000D01*
D24*
X80264000Y-122174000D02*
X80264000Y-74930000D01*
X99568000Y-110490000D02*
X99822000Y-110490000D01*
X100584000Y-111252000D02*
X100584000Y-117094000D01*
X97282000Y-108204000D02*
X99568000Y-110490000D01*
D23*
X117348000Y-77216000D02*
X117348000Y-77470000D01*
D24*
X81026000Y-122936000D02*
X80264000Y-122174000D01*
X82042000Y-124714000D02*
X81026000Y-123698000D01*
X80264000Y-74930000D02*
X82042000Y-73152000D01*
X81026000Y-123698000D02*
X81026000Y-122936000D01*
D23*
X119634000Y-82296000D02*
X119634000Y-83312000D01*
X119380000Y-82042000D02*
X119634000Y-82296000D01*
D24*
X95758000Y-106680000D02*
X97282000Y-108204000D01*
X96266000Y-124714000D02*
X82042000Y-124714000D01*
%TO.N,MOSI*%
X115570000Y-91948000D02*
X115824000Y-91694000D01*
X115824000Y-91694000D02*
X115824000Y-90424000D01*
X120396000Y-82804000D02*
X120396000Y-77216000D01*
X110998000Y-94742000D02*
X114378002Y-94742000D01*
X92710000Y-121158000D02*
X92202000Y-120650000D01*
X105664000Y-96520000D02*
X105410000Y-96774000D01*
X98298000Y-120904000D02*
X98044000Y-121158000D01*
X115570000Y-92456000D02*
X115570000Y-91948000D01*
X120396000Y-77216000D02*
X121666000Y-75946000D01*
X92202000Y-120650000D02*
X92964000Y-119888000D01*
X122428000Y-86614000D02*
X122428000Y-84836000D01*
X92964000Y-99060000D02*
X95504000Y-99060000D01*
X92964000Y-119888000D02*
X92964000Y-99060000D01*
X114378002Y-93647998D02*
X115570000Y-92456000D01*
X120650000Y-90170000D02*
X120650000Y-88392000D01*
X98298000Y-113792000D02*
X98298000Y-120904000D01*
X98044000Y-121158000D02*
X92710000Y-121158000D01*
X120650000Y-88392000D02*
X122428000Y-86614000D01*
X114378002Y-94742000D02*
X114378002Y-93647998D01*
X109728000Y-96520000D02*
X105664000Y-96520000D01*
X122428000Y-84836000D02*
X120396000Y-82804000D01*
%TO.N,+3.3V*%
X111760000Y-78486000D02*
X113030000Y-77216000D01*
X142748000Y-85090000D02*
X142748000Y-96774000D01*
X121412000Y-98044000D02*
X123190000Y-98044000D01*
X109474000Y-87630000D02*
X112522000Y-87630000D01*
X140208000Y-97536000D02*
X140462000Y-97790000D01*
X96774000Y-86360000D02*
X98806000Y-84328000D01*
X141732000Y-84074000D02*
X142748000Y-85090000D01*
X95504000Y-86360000D02*
X96774000Y-86360000D01*
D23*
X104648000Y-89154000D02*
X104648000Y-91948000D01*
D24*
X104140000Y-88646000D02*
X108458000Y-88646000D01*
X113030000Y-77216000D02*
X115833305Y-77216000D01*
D23*
X104140000Y-88646000D02*
X104648000Y-89154000D01*
X102108000Y-95504000D02*
X102108000Y-98044000D01*
D24*
X138938000Y-99314000D02*
X137668000Y-98044000D01*
X118110000Y-79492695D02*
X118110000Y-83565992D01*
X152654000Y-109220000D02*
X152654000Y-114808000D01*
X148590000Y-96774000D02*
X149098000Y-96266000D01*
D23*
X102362000Y-98298000D02*
X102870000Y-98298000D01*
D24*
X131318000Y-101092000D02*
X129032000Y-98806000D01*
X148590000Y-99314000D02*
X148590000Y-96774000D01*
X152654000Y-114808000D02*
X150876000Y-116586000D01*
X138938000Y-101600000D02*
X138938000Y-99314000D01*
X140462000Y-97790000D02*
X143764000Y-97790000D01*
X133858000Y-101092000D02*
X131318000Y-101092000D01*
D23*
X102108000Y-98044000D02*
X102362000Y-98298000D01*
D24*
X145288000Y-99314000D02*
X148590000Y-99314000D01*
X143764000Y-97790000D02*
X145288000Y-99314000D01*
D23*
X103886000Y-93726000D02*
X102108000Y-95504000D01*
D24*
X140208000Y-118618000D02*
X134874000Y-118618000D01*
X112522000Y-87630000D02*
X113030000Y-87122000D01*
X115833305Y-77216000D02*
X118110000Y-79492695D01*
X142748000Y-96774000D02*
X143764000Y-97790000D01*
D23*
X105410000Y-93726000D02*
X103886000Y-93726000D01*
D24*
X119607000Y-124687000D02*
X119634000Y-124714000D01*
X141732000Y-77978000D02*
X141732000Y-84074000D01*
X108458000Y-88646000D02*
X109474000Y-87630000D01*
X141986000Y-116840000D02*
X140208000Y-118618000D01*
X110263000Y-124687000D02*
X119607000Y-124687000D01*
%TO.N,C_2*%
X83872000Y-94778000D02*
X90372000Y-94778000D01*
D23*
X99314000Y-80010000D02*
X99568000Y-80264000D01*
D24*
X93218000Y-80010000D02*
X97536000Y-80010000D01*
D23*
X97536000Y-80010000D02*
X99314000Y-80010000D01*
D24*
%TO.N,Fail_safe*%
X92710000Y-76708000D02*
X95758000Y-76708000D01*
X91352000Y-76708000D02*
X92710000Y-76708000D01*
X84126000Y-75982000D02*
X90626000Y-75982000D01*
X90626000Y-75982000D02*
X91352000Y-76708000D01*
%TD*%
M02*
