%TF.GenerationSoftware,KiCad,Pcbnew,7.0.10*%
%TF.CreationDate,2024-08-15T13:32:21+05:30*%
%TF.ProjectId,Watch,57617463-682e-46b6-9963-61645f706362,rev?*%
%TF.SameCoordinates,Original*%
%TF.FileFunction,Copper,L1,Top*%
%TF.FilePolarity,Positive*%
%FSLAX46Y46*%
G04 Gerber Fmt 4.6, Leading zero omitted, Abs format (unit mm)*
G04 Created by KiCad (PCBNEW 7.0.10) date 2024-08-15 13:32:21*
%MOMM*%
%LPD*%
G01*
G04 APERTURE LIST*
G04 Aperture macros list*
%AMRoundRect*
0 Rectangle with rounded corners*
0 $1 Rounding radius*
0 $2 $3 $4 $5 $6 $7 $8 $9 X,Y pos of 4 corners*
0 Add a 4 corners polygon primitive as box body*
4,1,4,$2,$3,$4,$5,$6,$7,$8,$9,$2,$3,0*
0 Add four circle primitives for the rounded corners*
1,1,$1+$1,$2,$3*
1,1,$1+$1,$4,$5*
1,1,$1+$1,$6,$7*
1,1,$1+$1,$8,$9*
0 Add four rect primitives between the rounded corners*
20,1,$1+$1,$2,$3,$4,$5,0*
20,1,$1+$1,$4,$5,$6,$7,0*
20,1,$1+$1,$6,$7,$8,$9,0*
20,1,$1+$1,$8,$9,$2,$3,0*%
G04 Aperture macros list end*
%TA.AperFunction,ComponentPad*%
%ADD10C,3.800000*%
%TD*%
%TA.AperFunction,ComponentPad*%
%ADD11C,1.408000*%
%TD*%
%TA.AperFunction,ComponentPad*%
%ADD12R,1.408000X1.408000*%
%TD*%
%TA.AperFunction,ComponentPad*%
%ADD13C,2.000000*%
%TD*%
%TA.AperFunction,SMDPad,CuDef*%
%ADD14RoundRect,0.281250X-0.618750X-1.188750X0.618750X-1.188750X0.618750X1.188750X-0.618750X1.188750X0*%
%TD*%
%TA.AperFunction,SMDPad,CuDef*%
%ADD15RoundRect,0.100000X-0.125000X-0.100000X0.125000X-0.100000X0.125000X0.100000X-0.125000X0.100000X0*%
%TD*%
%TA.AperFunction,SMDPad,CuDef*%
%ADD16RoundRect,0.100000X-0.140000X-0.100000X0.140000X-0.100000X0.140000X0.100000X-0.140000X0.100000X0*%
%TD*%
%TA.AperFunction,SMDPad,CuDef*%
%ADD17RoundRect,0.250000X-0.375000X-1.075000X0.375000X-1.075000X0.375000X1.075000X-0.375000X1.075000X0*%
%TD*%
%TA.AperFunction,SMDPad,CuDef*%
%ADD18RoundRect,0.100000X-0.115000X-0.100000X0.115000X-0.100000X0.115000X0.100000X-0.115000X0.100000X0*%
%TD*%
%TA.AperFunction,SMDPad,CuDef*%
%ADD19RoundRect,0.250000X0.262500X0.450000X-0.262500X0.450000X-0.262500X-0.450000X0.262500X-0.450000X0*%
%TD*%
%TA.AperFunction,SMDPad,CuDef*%
%ADD20RoundRect,0.100000X-0.150000X-0.100000X0.150000X-0.100000X0.150000X0.100000X-0.150000X0.100000X0*%
%TD*%
%TA.AperFunction,SMDPad,CuDef*%
%ADD21RoundRect,0.100000X-0.100000X-0.100000X0.100000X-0.100000X0.100000X0.100000X-0.100000X0.100000X0*%
%TD*%
%TA.AperFunction,SMDPad,CuDef*%
%ADD22RoundRect,0.250000X-0.262500X-0.450000X0.262500X-0.450000X0.262500X0.450000X-0.262500X0.450000X0*%
%TD*%
%TA.AperFunction,SMDPad,CuDef*%
%ADD23RoundRect,0.100000X-0.130000X-0.100000X0.130000X-0.100000X0.130000X0.100000X-0.130000X0.100000X0*%
%TD*%
%TA.AperFunction,ComponentPad*%
%ADD24R,1.700000X1.700000*%
%TD*%
%TA.AperFunction,ComponentPad*%
%ADD25O,1.700000X1.700000*%
%TD*%
%TA.AperFunction,SMDPad,CuDef*%
%ADD26RoundRect,0.150000X0.587500X0.150000X-0.587500X0.150000X-0.587500X-0.150000X0.587500X-0.150000X0*%
%TD*%
%TA.AperFunction,ComponentPad*%
%ADD27O,1.600000X1.000000*%
%TD*%
%TA.AperFunction,ComponentPad*%
%ADD28O,2.100000X1.000000*%
%TD*%
%TA.AperFunction,SMDPad,CuDef*%
%ADD29RoundRect,0.150000X0.500000X-0.150000X0.500000X0.150000X-0.500000X0.150000X-0.500000X-0.150000X0*%
%TD*%
%TA.AperFunction,SMDPad,CuDef*%
%ADD30RoundRect,0.075000X0.575000X-0.075000X0.575000X0.075000X-0.575000X0.075000X-0.575000X-0.075000X0*%
%TD*%
%TA.AperFunction,SMDPad,CuDef*%
%ADD31RoundRect,0.100000X0.130000X0.100000X-0.130000X0.100000X-0.130000X-0.100000X0.130000X-0.100000X0*%
%TD*%
%TA.AperFunction,SMDPad,CuDef*%
%ADD32RoundRect,0.250000X0.450000X-0.262500X0.450000X0.262500X-0.450000X0.262500X-0.450000X-0.262500X0*%
%TD*%
%TA.AperFunction,SMDPad,CuDef*%
%ADD33RoundRect,0.100000X-0.105000X-0.100000X0.105000X-0.100000X0.105000X0.100000X-0.105000X0.100000X0*%
%TD*%
%TA.AperFunction,SMDPad,CuDef*%
%ADD34RoundRect,0.100000X-0.120000X-0.100000X0.120000X-0.100000X0.120000X0.100000X-0.120000X0.100000X0*%
%TD*%
%TA.AperFunction,SMDPad,CuDef*%
%ADD35RoundRect,0.250000X2.050000X0.300000X-2.050000X0.300000X-2.050000X-0.300000X2.050000X-0.300000X0*%
%TD*%
%TA.AperFunction,SMDPad,CuDef*%
%ADD36RoundRect,0.250000X2.025000X2.375000X-2.025000X2.375000X-2.025000X-2.375000X2.025000X-2.375000X0*%
%TD*%
%TA.AperFunction,SMDPad,CuDef*%
%ADD37RoundRect,0.250002X4.449998X5.149998X-4.449998X5.149998X-4.449998X-5.149998X4.449998X-5.149998X0*%
%TD*%
%TA.AperFunction,SMDPad,CuDef*%
%ADD38RoundRect,0.250000X0.312500X0.625000X-0.312500X0.625000X-0.312500X-0.625000X0.312500X-0.625000X0*%
%TD*%
%TA.AperFunction,ComponentPad*%
%ADD39C,1.524000*%
%TD*%
%TA.AperFunction,ComponentPad*%
%ADD40C,1.500000*%
%TD*%
%TA.AperFunction,SMDPad,CuDef*%
%ADD41RoundRect,0.250000X-1.000000X-0.650000X1.000000X-0.650000X1.000000X0.650000X-1.000000X0.650000X0*%
%TD*%
%TA.AperFunction,ComponentPad*%
%ADD42O,3.000000X1.500000*%
%TD*%
%TA.AperFunction,ComponentPad*%
%ADD43R,2.000000X2.000000*%
%TD*%
%TA.AperFunction,SMDPad,CuDef*%
%ADD44R,1.400000X1.000000*%
%TD*%
%TA.AperFunction,SMDPad,CuDef*%
%ADD45RoundRect,0.075000X-0.910000X-0.225000X0.910000X-0.225000X0.910000X0.225000X-0.910000X0.225000X0*%
%TD*%
%TA.AperFunction,SMDPad,CuDef*%
%ADD46R,2.413000X3.302000*%
%TD*%
%TA.AperFunction,SMDPad,CuDef*%
%ADD47R,1.500000X0.900000*%
%TD*%
%TA.AperFunction,SMDPad,CuDef*%
%ADD48R,0.900000X1.500000*%
%TD*%
%TA.AperFunction,SMDPad,CuDef*%
%ADD49R,1.050000X1.050000*%
%TD*%
%TA.AperFunction,SMDPad,CuDef*%
%ADD50R,4.200000X4.200000*%
%TD*%
%TA.AperFunction,SMDPad,CuDef*%
%ADD51RoundRect,0.150000X0.825000X0.150000X-0.825000X0.150000X-0.825000X-0.150000X0.825000X-0.150000X0*%
%TD*%
%TA.AperFunction,SMDPad,CuDef*%
%ADD52RoundRect,0.459375X-1.290625X-1.010625X1.290625X-1.010625X1.290625X1.010625X-1.290625X1.010625X0*%
%TD*%
%TA.AperFunction,SMDPad,CuDef*%
%ADD53RoundRect,0.546875X1.458125X-1.203125X1.458125X1.203125X-1.458125X1.203125X-1.458125X-1.203125X0*%
%TD*%
%TA.AperFunction,ViaPad*%
%ADD54C,0.800000*%
%TD*%
%TA.AperFunction,Conductor*%
%ADD55C,0.250000*%
%TD*%
%TA.AperFunction,Conductor*%
%ADD56C,0.160000*%
%TD*%
%TA.AperFunction,Conductor*%
%ADD57C,0.180000*%
%TD*%
%TA.AperFunction,Conductor*%
%ADD58C,0.200000*%
%TD*%
G04 APERTURE END LIST*
D10*
%TO.P,M2,1*%
%TO.N,N/C*%
X158750000Y-125476000D03*
%TD*%
D11*
%TO.P,SW1,3,C*%
%TO.N,Net-(SW1A-C)*%
X156718000Y-102616000D03*
%TO.P,SW1,2,B*%
%TO.N,Enb*%
X156718000Y-105116000D03*
D12*
%TO.P,SW1,1,A*%
%TO.N,GND*%
X156718000Y-107616000D03*
%TD*%
D13*
%TO.P,BOOT,1,A*%
%TO.N,Io0*%
X83872000Y-106716000D03*
X90372000Y-106716000D03*
%TO.P,BOOT,2,B*%
%TO.N,GND*%
X83872000Y-111216000D03*
X90372000Y-111216000D03*
%TD*%
%TO.P,Failsafe,1,A*%
%TO.N,Fail_safe*%
X84126000Y-75982000D03*
X90626000Y-75982000D03*
%TO.P,Failsafe,2,B*%
%TO.N,GND*%
X84126000Y-80482000D03*
X90626000Y-80482000D03*
%TD*%
%TO.P,Reset,1,A*%
%TO.N,GND*%
X83618000Y-116114000D03*
X90118000Y-116114000D03*
%TO.P,Reset,2,B*%
%TO.N,EN*%
X83618000Y-120614000D03*
X90118000Y-120614000D03*
%TD*%
D14*
%TO.P,GPS,1,5V*%
%TO.N,+3.3V*%
X109728000Y-122682000D03*
%TO.P,GPS,2,GND*%
%TO.N,GND*%
X112268000Y-122682000D03*
%TO.P,GPS,3,TX*%
%TO.N,RX1*%
X114808000Y-122682000D03*
%TO.P,GPS,4,RX*%
%TO.N,TX1*%
X117348000Y-122682000D03*
%TD*%
D15*
%TO.P,C7,2*%
%TO.N,GND*%
X134726000Y-117348000D03*
D16*
%TO.P,C7,1*%
%TO.N,+3.3V*%
X134046000Y-117348000D03*
%TD*%
D17*
%TO.P,D4,2,A*%
%TO.N,Net-(D4-A)*%
X131702000Y-88646000D03*
%TO.P,D4,1,K*%
%TO.N,TX*%
X128902000Y-88646000D03*
%TD*%
D18*
%TO.P,C6,2*%
%TO.N,EN*%
X122911000Y-101092000D03*
%TO.P,C6,1*%
%TO.N,GND*%
X122271000Y-101092000D03*
%TD*%
D17*
%TO.P,D3,2,A*%
%TO.N,Net-(D3-A)*%
X131702000Y-93726000D03*
%TO.P,D3,1,K*%
%TO.N,RX*%
X128902000Y-93726000D03*
%TD*%
D19*
%TO.P,R15,1*%
%TO.N,Net-(D3-A)*%
X118411000Y-102108000D03*
%TO.P,R15,2*%
%TO.N,+3.3V*%
X116586000Y-102108000D03*
%TD*%
D20*
%TO.P,R11,2*%
%TO.N,Net-(Q4-Pad2)*%
X142723000Y-114554000D03*
D21*
%TO.P,R11,1*%
%TO.N,B_check*%
X142069000Y-114554000D03*
%TD*%
D19*
%TO.P,R1,1*%
%TO.N,GND*%
X151792500Y-74300000D03*
%TO.P,R1,2*%
%TO.N,Net-(J1-CC2)*%
X149967500Y-74300000D03*
%TD*%
D22*
%TO.P,R19,1*%
%TO.N,Net-(D5-K)*%
X124563500Y-104170000D03*
%TO.P,R19,2*%
%TO.N,Net-(U5-~{STDBY})*%
X126388500Y-104170000D03*
%TD*%
D23*
%TO.P,C1,2*%
%TO.N,GND*%
X154415000Y-91460000D03*
%TO.P,C1,1*%
%TO.N,VBUS*%
X153745000Y-91460000D03*
%TD*%
D22*
%TO.P,R4,1*%
%TO.N,+3.3V*%
X149817500Y-81010000D03*
%TO.P,R4,2*%
%TO.N,Net-(U2-ADJ)*%
X151642500Y-81010000D03*
%TD*%
D24*
%TO.P,J3,1,3.3*%
%TO.N,GND*%
X129540000Y-119380000D03*
D25*
%TO.P,J3,2,RX*%
%TO.N,TX*%
X127000000Y-119380000D03*
%TO.P,J3,3,TX*%
%TO.N,RX*%
X124460000Y-119380000D03*
%TO.P,J3,4,GND*%
%TO.N,+3.3V*%
X121920000Y-119380000D03*
%TD*%
D26*
%TO.P,Q3,1,B*%
%TO.N,Net-(Q3-B)*%
X138097500Y-89088000D03*
%TO.P,Q3,2,E*%
%TO.N,DTR*%
X138097500Y-87188000D03*
%TO.P,Q3,3,C*%
%TO.N,Io0*%
X136222500Y-88138000D03*
%TD*%
D17*
%TO.P,D5,2,A*%
%TO.N,VBUS*%
X127530000Y-108820000D03*
%TO.P,D5,1,K*%
%TO.N,Net-(D5-K)*%
X124730000Y-108820000D03*
%TD*%
D27*
%TO.P,J1,S1,SHIELD*%
%TO.N,GND*%
X160030000Y-76180000D03*
D28*
X155850000Y-76180000D03*
D27*
X160030000Y-84820000D03*
D28*
X155850000Y-84820000D03*
D29*
%TO.P,J1,B12,GND*%
X155210000Y-83700000D03*
%TO.P,J1,B9,VBUS*%
%TO.N,+5V*%
X155210000Y-82900000D03*
D30*
%TO.P,J1,B8,SBU2*%
%TO.N,unconnected-(J1-SBU2-PadB8)*%
X155210000Y-82250000D03*
%TO.P,J1,B7,D-*%
%TO.N,D-*%
X155210000Y-81250000D03*
%TO.P,J1,B6,D+*%
%TO.N,D+*%
X155210000Y-79750000D03*
%TO.P,J1,B5,CC2*%
%TO.N,Net-(J1-CC2)*%
X155210000Y-78750000D03*
D29*
%TO.P,J1,B4,VBUS*%
%TO.N,+5V*%
X155210000Y-78100000D03*
%TO.P,J1,B1,GND*%
%TO.N,GND*%
X155210000Y-77300000D03*
%TO.P,J1,A12,GND*%
X155210000Y-77300000D03*
%TO.P,J1,A9,VBUS*%
%TO.N,+5V*%
X155210000Y-78100000D03*
D30*
%TO.P,J1,A8,SBU1*%
%TO.N,unconnected-(J1-SBU1-PadA8)*%
X155210000Y-79250000D03*
%TO.P,J1,A7,D-*%
%TO.N,D-*%
X155210000Y-80250000D03*
%TO.P,J1,A6,D+*%
%TO.N,D+*%
X155210000Y-80750000D03*
%TO.P,J1,A5,CC1*%
%TO.N,Net-(J1-CC1)*%
X155210000Y-81750000D03*
D29*
%TO.P,J1,A4,VBUS*%
%TO.N,+5V*%
X155210000Y-82900000D03*
%TO.P,J1,A1,GND*%
%TO.N,GND*%
X155210000Y-83700000D03*
%TD*%
D23*
%TO.P,C14,2*%
%TO.N,GND*%
X134087000Y-87376000D03*
%TO.P,C14,1*%
%TO.N,Net-(U4-XO)*%
X133420000Y-87376000D03*
%TD*%
%TO.P,C19,2*%
%TO.N,+3.3V*%
X122911000Y-96266000D03*
%TO.P,C19,1*%
%TO.N,GND*%
X122245000Y-96266000D03*
%TD*%
D31*
%TO.P,C13,2*%
%TO.N,Net-(U4-XI)*%
X151100000Y-102108000D03*
%TO.P,C13,1*%
%TO.N,GND*%
X151770000Y-102108000D03*
%TD*%
D19*
%TO.P,R25,1*%
%TO.N,Fail_safe*%
X95908500Y-78486000D03*
%TO.P,R25,2*%
%TO.N,+3.3V*%
X94083500Y-78486000D03*
%TD*%
D17*
%TO.P,D6,1,K*%
%TO.N,Net-(D6-K)*%
X124690000Y-113410000D03*
%TO.P,D6,2,A*%
%TO.N,VBUS*%
X127490000Y-113410000D03*
%TD*%
D32*
%TO.P,R14,1*%
%TO.N,RTS*%
X130810000Y-100330000D03*
%TO.P,R14,2*%
%TO.N,Net-(Q3-B)*%
X130810000Y-98505000D03*
%TD*%
%TO.P,R18,1*%
%TO.N,Net-(SW1A-C)*%
X151384000Y-100123000D03*
%TO.P,R18,2*%
%TO.N,VBUS*%
X151384000Y-98298000D03*
%TD*%
D22*
%TO.P,R21,1*%
%TO.N,Buzz+*%
X131167500Y-115570000D03*
%TO.P,R21,2*%
%TO.N,Net-(BZ1-+)*%
X132992500Y-115570000D03*
%TD*%
D33*
%TO.P,R12,2*%
%TO.N,B_check*%
X136627000Y-117348000D03*
D34*
%TO.P,R12,1*%
%TO.N,GND*%
X135987000Y-117348000D03*
%TD*%
D31*
%TO.P,C17,2*%
%TO.N,GND*%
X146023000Y-111506000D03*
%TO.P,C17,1*%
%TO.N,+BATT*%
X146690000Y-111506000D03*
%TD*%
D23*
%TO.P,C16,2*%
%TO.N,GND*%
X149073000Y-111506000D03*
%TO.P,C16,1*%
%TO.N,+BATT*%
X148409000Y-111506000D03*
%TD*%
%TO.P,R2,2*%
%TO.N,GND*%
X154360000Y-87790000D03*
%TO.P,R2,1*%
%TO.N,+5V*%
X153695000Y-87790000D03*
%TD*%
D22*
%TO.P,R3,1*%
%TO.N,GND*%
X149777500Y-83360000D03*
%TO.P,R3,2*%
%TO.N,Net-(J1-CC1)*%
X151602500Y-83360000D03*
%TD*%
D23*
%TO.P,C15,2*%
%TO.N,+3.3V*%
X120462000Y-97028000D03*
%TO.P,C15,1*%
%TO.N,GND*%
X119795000Y-97028000D03*
%TD*%
D31*
%TO.P,C8,2*%
%TO.N,GND*%
X146375000Y-105410000D03*
%TO.P,C8,1*%
%TO.N,+3.3V*%
X147041000Y-105410000D03*
%TD*%
D35*
%TO.P,U2,1,EN*%
%TO.N,Enb*%
X145179000Y-82883000D03*
%TO.P,U2,2,VIN*%
%TO.N,VBUS*%
X145179000Y-81183000D03*
%TO.P,U2,3,GND*%
%TO.N,GND*%
X145179000Y-79483000D03*
D36*
X138454000Y-82258000D03*
X138454000Y-76708000D03*
D37*
X136029000Y-79483000D03*
D36*
X133604000Y-82258000D03*
X133604000Y-76708000D03*
D35*
%TO.P,U2,4,VOUT*%
%TO.N,+3.3V*%
X145179000Y-77783000D03*
%TO.P,U2,5,ADJ*%
%TO.N,Net-(U2-ADJ)*%
X145179000Y-76083000D03*
%TD*%
D38*
%TO.P,R17,1*%
%TO.N,Net-(U5-PROG)*%
X121858500Y-106426000D03*
%TO.P,R17,2*%
%TO.N,GND*%
X118933500Y-106426000D03*
%TD*%
D32*
%TO.P,R9,1*%
%TO.N,SDA*%
X104648000Y-100480500D03*
%TO.P,R9,2*%
%TO.N,+3.3V*%
X104648000Y-98655500D03*
%TD*%
D22*
%TO.P,C5,1*%
%TO.N,+3.3V*%
X149837500Y-94000000D03*
%TO.P,C5,2*%
%TO.N,GND*%
X151662500Y-94000000D03*
%TD*%
%TO.P,R20,1*%
%TO.N,Net-(D6-K)*%
X131175000Y-111730000D03*
%TO.P,R20,2*%
%TO.N,Net-(U5-~{CHRG})*%
X133000000Y-111730000D03*
%TD*%
%TO.P,R7,1*%
%TO.N,+3.3V*%
X124667000Y-100584000D03*
%TO.P,R7,2*%
%TO.N,EN*%
X126492000Y-100584000D03*
%TD*%
D39*
%TO.P,U6,1,Vcc*%
%TO.N,+3.3V*%
X105029000Y-115697000D03*
%TO.P,U6,2,GND*%
%TO.N,GND*%
X107569000Y-115697000D03*
%TO.P,U6,3,SCL*%
%TO.N,SCL*%
X110109000Y-115697000D03*
%TO.P,U6,4,SDA*%
%TO.N,SDA*%
X112649000Y-115697000D03*
%TO.P,U6,5,XDA*%
%TO.N,unconnected-(U6-XDA-Pad5)*%
X115189000Y-115697000D03*
%TO.P,U6,6,XCL*%
%TO.N,unconnected-(U6-XCL-Pad6)*%
X117729000Y-115697000D03*
%TO.P,U6,7,AD0*%
%TO.N,Net-(U6-AD0)*%
X120269000Y-115697000D03*
%TO.P,U6,8,INT*%
%TO.N,unconnected-(U6-INT-Pad8)*%
X122809000Y-115697000D03*
%TD*%
D40*
%TO.P,Y1,1,1*%
%TO.N,Net-(U4-XI)*%
X146214000Y-101346000D03*
%TO.P,Y1,2,2*%
%TO.N,Net-(U4-XO)*%
X141334000Y-101346000D03*
%TD*%
D32*
%TO.P,R6,1*%
%TO.N,Net-(D2-A)*%
X148590000Y-108608500D03*
%TO.P,R6,2*%
%TO.N,+3.3V*%
X148590000Y-106783500D03*
%TD*%
D13*
%TO.P,Control_1,1,A*%
%TO.N,C_1*%
X90372000Y-88864000D03*
X83872000Y-88864000D03*
%TO.P,Control_1,2,B*%
%TO.N,GND*%
X90372000Y-84364000D03*
X83872000Y-84364000D03*
%TD*%
D32*
%TO.P,R8,1*%
%TO.N,+3.3V*%
X117856000Y-99464500D03*
%TO.P,R8,2*%
%TO.N,Io0*%
X117856000Y-97639500D03*
%TD*%
D31*
%TO.P,C12,2*%
%TO.N,GND*%
X120139000Y-103124000D03*
%TO.P,C12,1*%
%TO.N,VBUS*%
X120807000Y-103124000D03*
%TD*%
D22*
%TO.P,R23,1*%
%TO.N,+3.3V*%
X94083500Y-82804000D03*
%TO.P,R23,2*%
%TO.N,C_1*%
X95908500Y-82804000D03*
%TD*%
D41*
%TO.P,D1,1,A1*%
%TO.N,VBUS*%
X154840000Y-95120000D03*
%TO.P,D1,2,A2*%
%TO.N,+5V*%
X158840000Y-95120000D03*
%TD*%
D23*
%TO.P,C18,2*%
%TO.N,GND*%
X156621000Y-97790000D03*
%TO.P,C18,1*%
%TO.N,+BATT*%
X155955000Y-97790000D03*
%TD*%
%TO.P,C11,w*%
%TO.N,GND*%
X120050000Y-101092000D03*
%TO.P,C11,2*%
%TO.N,+3.3V*%
X120716000Y-101092000D03*
%TD*%
D39*
%TO.P,MAX1,1,Vin*%
%TO.N,+3.3V*%
X112363000Y-96679000D03*
%TO.P,MAX1,2,GND*%
%TO.N,GND*%
X112363000Y-99219000D03*
%TO.P,MAX1,3,SCL*%
%TO.N,SCL*%
X112363000Y-101759000D03*
%TO.P,MAX1,4,SDA*%
%TO.N,SDA*%
X112363000Y-104299000D03*
%TO.P,MAX1,5,INT*%
%TO.N,unconnected-(MAX1-INT-Pad5)*%
X112363000Y-106839000D03*
%TD*%
D26*
%TO.P,Q2,1,B*%
%TO.N,Net-(Q2-B)*%
X138097500Y-94168000D03*
%TO.P,Q2,2,E*%
%TO.N,RTS*%
X138097500Y-92268000D03*
%TO.P,Q2,3,C*%
%TO.N,EN*%
X136222500Y-93218000D03*
%TD*%
D23*
%TO.P,C4,2*%
%TO.N,GND*%
X151020000Y-90860000D03*
%TO.P,C4,1*%
%TO.N,+3.3V*%
X150350000Y-90860000D03*
%TD*%
D42*
%TO.P,U3,1,VCC*%
%TO.N,+3.3V*%
X95504000Y-86360000D03*
%TO.P,U3,2,GND*%
%TO.N,GND*%
X95504000Y-88900000D03*
%TO.P,U3,3,CS*%
%TO.N,CS*%
X95504000Y-91440000D03*
%TO.P,U3,4,RST*%
%TO.N,RST*%
X95504000Y-93980000D03*
%TO.P,U3,5,DC*%
%TO.N,DC*%
X95504000Y-96520000D03*
%TO.P,U3,6,MOSI*%
%TO.N,MOSI*%
X95504000Y-99060000D03*
%TO.P,U3,7,SCK*%
%TO.N,SCK*%
X95504000Y-101600000D03*
%TO.P,U3,8,LED*%
%TO.N,+3.3V*%
X95504000Y-104140000D03*
%TO.P,U3,9,MISO*%
%TO.N,MISO*%
X95504000Y-106680000D03*
%TO.P,U3,10,T_CLK*%
%TO.N,SCK*%
X95504000Y-109220000D03*
%TO.P,U3,11,T_CS*%
%TO.N,T_CS*%
X95504000Y-111760000D03*
%TO.P,U3,12,T_DIN*%
%TO.N,MOSI*%
X95504000Y-114300000D03*
%TO.P,U3,13,T_D0*%
%TO.N,MISO*%
X95504000Y-116840000D03*
%TO.P,U3,14,T_IRQ*%
%TO.N,T_IRQ*%
X95504000Y-119380000D03*
%TD*%
D31*
%TO.P,C2,2*%
%TO.N,+5V*%
X148450000Y-77030000D03*
%TO.P,C2,1*%
%TO.N,GND*%
X149115000Y-77030000D03*
%TD*%
D23*
%TO.P,C10,2*%
%TO.N,GND*%
X139258000Y-106172000D03*
%TO.P,C10,1*%
%TO.N,VBUS*%
X138590000Y-106172000D03*
%TD*%
D13*
%TO.P,Control_2,1,A*%
%TO.N,C_2*%
X83872000Y-94778000D03*
X90372000Y-94778000D03*
%TO.P,Control_2,2,B*%
%TO.N,GND*%
X83872000Y-99278000D03*
X90372000Y-99278000D03*
%TD*%
D43*
%TO.P,BZ1,1,+*%
%TO.N,Net-(BZ1-+)*%
X143266000Y-120650000D03*
D13*
%TO.P,BZ1,2,-*%
%TO.N,GND*%
X150866000Y-120650000D03*
%TD*%
D32*
%TO.P,R10,1*%
%TO.N,SCL*%
X108712000Y-100480500D03*
%TO.P,R10,2*%
%TO.N,+3.3V*%
X108712000Y-98655500D03*
%TD*%
D26*
%TO.P,Q1,1,G*%
%TO.N,+5V*%
X159512000Y-89022000D03*
%TO.P,Q1,2,S*%
%TO.N,+BATT*%
X159512000Y-87122000D03*
%TO.P,Q1,3,D*%
%TO.N,VBUS*%
X157637000Y-88072000D03*
%TD*%
D19*
%TO.P,R16,1*%
%TO.N,Net-(D4-A)*%
X126388500Y-97282000D03*
%TO.P,R16,2*%
%TO.N,+3.3V*%
X124563500Y-97282000D03*
%TD*%
D22*
%TO.P,R5,1*%
%TO.N,Net-(U2-ADJ)*%
X149807500Y-86620000D03*
%TO.P,R5,2*%
%TO.N,GND*%
X151632500Y-86620000D03*
%TD*%
D31*
%TO.P,C3,2*%
%TO.N,GND*%
X152350000Y-77070000D03*
%TO.P,C3,1*%
%TO.N,+5V*%
X153020000Y-77070000D03*
%TD*%
D22*
%TO.P,R24,1*%
%TO.N,+3.3V*%
X93980000Y-74930000D03*
%TO.P,R24,2*%
%TO.N,C_2*%
X95805000Y-74930000D03*
%TD*%
D44*
%TO.P,Q4,1*%
%TO.N,Select*%
X139530000Y-112710000D03*
%TO.P,Q4,2*%
%TO.N,Net-(Q4-Pad2)*%
X139530000Y-110810000D03*
%TO.P,Q4,3*%
%TO.N,+BATT*%
X137330000Y-111760000D03*
%TD*%
D45*
%TO.P,U5,1,TEMP*%
%TO.N,Net-(U5-PROG)*%
X130220000Y-104620000D03*
%TO.P,U5,2,PROG*%
X130220000Y-105890000D03*
%TO.P,U5,3,GND*%
%TO.N,GND*%
X130220000Y-107160000D03*
%TO.P,U5,4,VCC*%
%TO.N,+5V*%
X130220000Y-108430000D03*
%TO.P,U5,5,BAT*%
%TO.N,+BATT*%
X135170000Y-108430000D03*
%TO.P,U5,6,~{STDBY}*%
%TO.N,Net-(U5-~{STDBY})*%
X135170000Y-107160000D03*
%TO.P,U5,7,~{CHRG}*%
%TO.N,Net-(U5-~{CHRG})*%
X135170000Y-105890000D03*
%TO.P,U5,8,CE*%
%TO.N,+5V*%
X135170000Y-104620000D03*
D46*
%TO.P,U5,9,EP*%
%TO.N,GND*%
X132695000Y-106525000D03*
%TD*%
D32*
%TO.P,R13,1*%
%TO.N,DTR*%
X135382000Y-100330000D03*
%TO.P,R13,2*%
%TO.N,Net-(Q2-B)*%
X135382000Y-98505000D03*
%TD*%
D17*
%TO.P,D2,2,A*%
%TO.N,Net-(D2-A)*%
X144910000Y-107950000D03*
%TO.P,D2,1,K*%
%TO.N,GND*%
X142110000Y-107950000D03*
%TD*%
D23*
%TO.P,C9,2*%
%TO.N,+3.3V*%
X122911000Y-99060000D03*
%TO.P,C9,1*%
%TO.N,GND*%
X122240000Y-99060000D03*
%TD*%
D19*
%TO.P,R22,1*%
%TO.N,Net-(U6-AD0)*%
X118872000Y-118618000D03*
%TO.P,R22,2*%
%TO.N,GND*%
X117047000Y-118618000D03*
%TD*%
D47*
%TO.P,U1,1,GND*%
%TO.N,GND*%
X107030000Y-74440000D03*
%TO.P,U1,2,VDD*%
%TO.N,+3.3V*%
X107030000Y-75710000D03*
%TO.P,U1,3,EN*%
%TO.N,EN*%
X107030000Y-76980000D03*
%TO.P,U1,4,SENSOR_VP*%
%TO.N,unconnected-(U1-SENSOR_VP-Pad4)*%
X107030000Y-78250000D03*
%TO.P,U1,5,SENSOR_VN*%
%TO.N,unconnected-(U1-SENSOR_VN-Pad5)*%
X107030000Y-79520000D03*
%TO.P,U1,6,IO34*%
%TO.N,C_2*%
X107030000Y-80790000D03*
%TO.P,U1,7,IO35*%
%TO.N,Fail_safe*%
X107030000Y-82060000D03*
%TO.P,U1,8,IO32*%
%TO.N,Select*%
X107030000Y-83330000D03*
%TO.P,U1,9,IO33*%
%TO.N,unconnected-(U1-IO33-Pad9)*%
X107030000Y-84600000D03*
%TO.P,U1,10,IO25*%
%TO.N,T_IRQ*%
X107030000Y-85870000D03*
%TO.P,U1,11,IO26*%
%TO.N,B_check*%
X107030000Y-87140000D03*
%TO.P,U1,12,IO27*%
%TO.N,T_CS*%
X107030000Y-88410000D03*
%TO.P,U1,13,IO14*%
%TO.N,C_1*%
X107030000Y-89680000D03*
%TO.P,U1,14,IO12*%
%TO.N,Buzz+*%
X107030000Y-90950000D03*
D48*
%TO.P,U1,15,GND*%
%TO.N,GND*%
X110070000Y-92200000D03*
%TO.P,U1,16,IO13*%
%TO.N,unconnected-(U1-IO13-Pad16)*%
X111340000Y-92200000D03*
%TO.P,U1,17,SHD/SD2*%
%TO.N,unconnected-(U1-SHD{slash}SD2-Pad17)*%
X112610000Y-92200000D03*
%TO.P,U1,18,SWP/SD3*%
%TO.N,unconnected-(U1-SWP{slash}SD3-Pad18)*%
X113880000Y-92200000D03*
%TO.P,U1,19,SCS/CMD*%
%TO.N,unconnected-(U1-SCS{slash}CMD-Pad19)*%
X115150000Y-92200000D03*
%TO.P,U1,20,SCK/CLK*%
%TO.N,unconnected-(U1-SCK{slash}CLK-Pad20)*%
X116420000Y-92200000D03*
%TO.P,U1,21,SDO/SD0*%
%TO.N,unconnected-(U1-SDO{slash}SD0-Pad21)*%
X117690000Y-92200000D03*
%TO.P,U1,22,SDI/SD1*%
%TO.N,unconnected-(U1-SDI{slash}SD1-Pad22)*%
X118960000Y-92200000D03*
%TO.P,U1,23,IO15*%
%TO.N,CS*%
X120230000Y-92200000D03*
%TO.P,U1,24,IO2*%
%TO.N,DC*%
X121500000Y-92200000D03*
D47*
%TO.P,U1,25,IO0*%
%TO.N,Io0*%
X124530000Y-90950000D03*
%TO.P,U1,26,IO4*%
%TO.N,RST*%
X124530000Y-89680000D03*
%TO.P,U1,27,IO16*%
%TO.N,RX1*%
X124530000Y-88410000D03*
%TO.P,U1,28,IO17*%
%TO.N,TX1*%
X124530000Y-87140000D03*
%TO.P,U1,29,IO5*%
%TO.N,Motor+*%
X124530000Y-85870000D03*
%TO.P,U1,30,IO18*%
%TO.N,SCK*%
X124530000Y-84600000D03*
%TO.P,U1,31,IO19*%
%TO.N,MISO*%
X124530000Y-83330000D03*
%TO.P,U1,32,NC*%
%TO.N,unconnected-(U1-NC-Pad32)*%
X124530000Y-82060000D03*
%TO.P,U1,33,IO21*%
%TO.N,SDA*%
X124530000Y-80790000D03*
%TO.P,U1,34,RXD0/IO3*%
%TO.N,TX*%
X124530000Y-79520000D03*
%TO.P,U1,35,TXD0/IO1*%
%TO.N,RX*%
X124530000Y-78250000D03*
%TO.P,U1,36,IO22*%
%TO.N,SCL*%
X124530000Y-76980000D03*
%TO.P,U1,37,IO23*%
%TO.N,MOSI*%
X124530000Y-75710000D03*
%TO.P,U1,38,GND*%
%TO.N,GND*%
X124530000Y-74440000D03*
D49*
%TO.P,U1,39,GND*%
X113575000Y-80255000D03*
X113575000Y-81780000D03*
X113575000Y-83305000D03*
X115100000Y-80255000D03*
X115100000Y-81780000D03*
D50*
X115100000Y-81780000D03*
D49*
X115100000Y-83305000D03*
X116625000Y-80255000D03*
X116625000Y-81780000D03*
X116625000Y-83305000D03*
%TD*%
D51*
%TO.P,U4,1,GND*%
%TO.N,GND*%
X145985000Y-95631000D03*
%TO.P,U4,2,TXD*%
%TO.N,TX*%
X145985000Y-94361000D03*
%TO.P,U4,3,RXD*%
%TO.N,RX*%
X145985000Y-93091000D03*
%TO.P,U4,4,V3*%
%TO.N,+3.3V*%
X145985000Y-91821000D03*
%TO.P,U4,5,UD+*%
%TO.N,D+*%
X145985000Y-90551000D03*
%TO.P,U4,6,UD-*%
%TO.N,D-*%
X145985000Y-89281000D03*
%TO.P,U4,7,XI*%
%TO.N,Net-(U4-XI)*%
X145985000Y-88011000D03*
%TO.P,U4,8,XO*%
%TO.N,Net-(U4-XO)*%
X145985000Y-86741000D03*
%TO.P,U4,9,~{CTS}*%
%TO.N,unconnected-(U4-~{CTS}-Pad9)*%
X141035000Y-86741000D03*
%TO.P,U4,10,~{DSR}*%
%TO.N,unconnected-(U4-~{DSR}-Pad10)*%
X141035000Y-88011000D03*
%TO.P,U4,11,~{RI}*%
%TO.N,unconnected-(U4-~{RI}-Pad11)*%
X141035000Y-89281000D03*
%TO.P,U4,12,~{DCD}*%
%TO.N,unconnected-(U4-~{DCD}-Pad12)*%
X141035000Y-90551000D03*
%TO.P,U4,13,~{DTR}*%
%TO.N,DTR*%
X141035000Y-91821000D03*
%TO.P,U4,14,~{RTS}*%
%TO.N,RTS*%
X141035000Y-93091000D03*
%TO.P,U4,15,R232*%
%TO.N,unconnected-(U4-R232-Pad15)*%
X141035000Y-94361000D03*
%TO.P,U4,16,VCC*%
%TO.N,+3.3V*%
X141035000Y-95631000D03*
%TD*%
D52*
%TO.P,M1,1,V+*%
%TO.N,Motor+*%
X131318000Y-123444000D03*
%TO.P,M1,2,V-*%
%TO.N,GND*%
X138148000Y-123444000D03*
%TD*%
D53*
%TO.P,J2,1,+*%
%TO.N,+BATT*%
X156718000Y-115824000D03*
%TO.P,J2,2,-*%
%TO.N,GND*%
X156718000Y-120904000D03*
%TD*%
D54*
%TO.N,C_1*%
X95250000Y-80772000D03*
X103378000Y-90932000D03*
X88392000Y-85852000D03*
X101854000Y-88900000D03*
X92456000Y-82042000D03*
%TO.N,GND*%
X121666000Y-109728000D03*
X129032000Y-113792000D03*
X104394000Y-77978000D03*
X132080000Y-108966000D03*
X116586000Y-114808000D03*
X113792000Y-106680000D03*
X101600000Y-78486000D03*
X108965996Y-75438000D03*
X125984000Y-111506000D03*
X136906000Y-104902000D03*
X115824000Y-104394000D03*
X130048000Y-111251966D03*
X106680000Y-97790000D03*
X144018000Y-110490000D03*
%TO.N,RX1*%
X100330000Y-106426000D03*
X114554000Y-120396000D03*
X98298000Y-98552000D03*
X114808000Y-87122000D03*
X104902000Y-108712000D03*
X107442000Y-110744000D03*
X99314000Y-101092000D03*
X110490000Y-110236000D03*
X100330000Y-108712000D03*
X112776000Y-118872000D03*
%TO.N,TX1*%
X119634000Y-86868000D03*
X114300000Y-85090000D03*
X102362000Y-86614000D03*
X98806000Y-82804000D03*
X109220000Y-84328000D03*
X93218000Y-96266000D03*
%TO.N,Io0*%
X98044000Y-107696000D03*
X115316000Y-107696000D03*
X134366000Y-88900000D03*
X90932000Y-103378000D03*
X109474000Y-105410000D03*
X126746000Y-91186000D03*
X117602000Y-96266000D03*
%TO.N,VBUS*%
X154178000Y-97790000D03*
X140208000Y-104648000D03*
X147503948Y-84628701D03*
X135636000Y-102870000D03*
X123444000Y-110744000D03*
X152908000Y-94488000D03*
X157734000Y-92202000D03*
X150876000Y-104648000D03*
X121666000Y-102870000D03*
X140462000Y-107950000D03*
X127508000Y-106426000D03*
%TO.N,+5V*%
X129239299Y-109728000D03*
X152400000Y-79248000D03*
X133858000Y-103124000D03*
X150690195Y-82356740D03*
X158750000Y-83820000D03*
%TO.N,EN*%
X128016000Y-99568000D03*
X122682000Y-101854000D03*
X130302000Y-75184000D03*
X86105988Y-73954008D03*
X110236000Y-78486000D03*
X137160000Y-90932000D03*
X99568000Y-76962000D03*
X92710000Y-77978000D03*
X135890000Y-91948000D03*
X131572000Y-85852000D03*
%TO.N,Net-(U4-XI)*%
X151130000Y-103378000D03*
%TO.N,+BATT*%
X133096000Y-108966000D03*
X154686000Y-99314000D03*
X147574000Y-113792000D03*
X155956000Y-89408000D03*
X144272000Y-114300000D03*
X135636000Y-112522000D03*
X151892000Y-110490000D03*
X137668000Y-113538000D03*
X159512000Y-115062000D03*
%TO.N,RX*%
X122682000Y-90932000D03*
X129032000Y-96266000D03*
X148844000Y-94996000D03*
X122174000Y-78232000D03*
X149098000Y-118618000D03*
X124460000Y-93472000D03*
X153670000Y-117348000D03*
X124968000Y-95758000D03*
%TO.N,Net-(D3-A)*%
X118872000Y-100584000D03*
X126238000Y-89916000D03*
%TO.N,TX*%
X152146000Y-117094000D03*
X148082000Y-100838000D03*
X146812004Y-98552000D03*
X160020000Y-118364000D03*
X159512000Y-113792000D03*
X154686000Y-102362000D03*
X152654000Y-101346000D03*
X128016000Y-80518000D03*
X147320000Y-117856000D03*
X146050000Y-123952000D03*
X148082000Y-95757994D03*
X128016000Y-125222000D03*
X133350000Y-93472000D03*
X129286000Y-86106000D03*
%TO.N,D+*%
X148336000Y-90424000D03*
X153416000Y-80772000D03*
%TO.N,D-*%
X149352000Y-89154000D03*
X155702000Y-87122000D03*
%TO.N,Motor+*%
X116586000Y-93980000D03*
X115824000Y-96520000D03*
X120650000Y-122428000D03*
X116586000Y-86360000D03*
%TO.N,SCL*%
X85344000Y-121666000D03*
X87376000Y-79502000D03*
X87122000Y-97536000D03*
X101346000Y-74930000D03*
X98298000Y-75692000D03*
X113284000Y-75946000D03*
X119634000Y-78486000D03*
X89408000Y-97028000D03*
X86111143Y-76966143D03*
X87122000Y-101854000D03*
X110490000Y-74168000D03*
X88900000Y-75184000D03*
X88646000Y-121920000D03*
X104902000Y-106680000D03*
X85090000Y-103124000D03*
%TO.N,SDA*%
X103886000Y-80010000D03*
X105156000Y-121666000D03*
X103124000Y-106680000D03*
X105918000Y-103378000D03*
X93472000Y-122936000D03*
X112776000Y-111506000D03*
X85344000Y-78994000D03*
X111252000Y-118872000D03*
X107188000Y-120396000D03*
X106934000Y-112014000D03*
X105156000Y-123952000D03*
X88900000Y-77470000D03*
X88392000Y-122935996D03*
X116078000Y-78994000D03*
X99568000Y-78740000D03*
X95758000Y-123698000D03*
%TO.N,RTS*%
X132334000Y-100076000D03*
X136906000Y-99314000D03*
%TO.N,Select*%
X141478000Y-113030000D03*
X123190000Y-112776000D03*
X109474000Y-108966000D03*
X102870000Y-105410000D03*
X101854000Y-84836000D03*
X119380000Y-108966000D03*
%TO.N,Net-(U2-ADJ)*%
X150876000Y-78740000D03*
X148590000Y-84074000D03*
%TO.N,B_check*%
X104648000Y-87376000D03*
X86614000Y-92202000D03*
X135636000Y-124714000D03*
X90932000Y-91440000D03*
X88392000Y-104648000D03*
X136398000Y-114554000D03*
X137414000Y-116332000D03*
X100076000Y-88392000D03*
X121920000Y-121920000D03*
X99568000Y-118364000D03*
X139446000Y-119380000D03*
X88138000Y-100584000D03*
%TO.N,Net-(U5-~{STDBY})*%
X138684000Y-107442000D03*
X125730000Y-105918000D03*
%TO.N,Net-(U5-~{CHRG})*%
X137668000Y-105918000D03*
X135890000Y-110998000D03*
%TO.N,Buzz+*%
X114808000Y-90849998D03*
X108966000Y-89662000D03*
X114300000Y-99822000D03*
X113030000Y-89662000D03*
X114046000Y-96774000D03*
X112014000Y-93726000D03*
%TO.N,Enb*%
X146050000Y-97282004D03*
X144526000Y-85090000D03*
%TO.N,T_IRQ*%
X111760000Y-86360000D03*
X108966000Y-82804000D03*
X86192084Y-118872000D03*
X108966000Y-78994000D03*
X91694000Y-118872000D03*
X86106000Y-74954010D03*
%TO.N,T_CS*%
X101600000Y-103378000D03*
X100330000Y-89916000D03*
%TO.N,CS*%
X120142000Y-93980000D03*
X105664000Y-95504000D03*
%TO.N,DC*%
X109474000Y-90678000D03*
X101092000Y-95758000D03*
%TO.N,RST*%
X103886000Y-96266000D03*
X115316000Y-88646000D03*
%TO.N,SCK*%
X126746000Y-74168000D03*
X99060000Y-105664000D03*
X126492000Y-83312000D03*
X106426000Y-124968000D03*
X120904000Y-73406000D03*
X101600000Y-112014000D03*
X126492000Y-76200000D03*
%TO.N,MISO*%
X119126000Y-74168000D03*
X117348000Y-77216000D03*
X100330000Y-120650000D03*
X100584000Y-117094000D03*
X120650000Y-84328000D03*
%TO.N,MOSI*%
X121666000Y-75946000D03*
X115824000Y-90424000D03*
X120650000Y-90170000D03*
X105410000Y-96774000D03*
X110998000Y-94742000D03*
X109728000Y-96520000D03*
X98298000Y-113792000D03*
%TO.N,+3.3V*%
X141732000Y-77978000D03*
X111760000Y-78486000D03*
X133858000Y-101092000D03*
X118110000Y-83565992D03*
X113030000Y-87122000D03*
X104140000Y-88646000D03*
X110263000Y-124687000D03*
X137668000Y-98044000D03*
X129032000Y-98806000D03*
X141986000Y-116840000D03*
X140208000Y-97536000D03*
X121412000Y-98044000D03*
X123190000Y-98044000D03*
X152654000Y-109220000D03*
X134874000Y-118618000D03*
X119634000Y-124714000D03*
X98806000Y-84328000D03*
X149098000Y-96266000D03*
X138938000Y-101600000D03*
X104648000Y-91948000D03*
X102870000Y-98298000D03*
X150876000Y-116586000D03*
X105410000Y-93726000D03*
%TO.N,C_2*%
X99568000Y-80264000D03*
X93218000Y-80010000D03*
%TO.N,Fail_safe*%
X95758000Y-76708000D03*
%TD*%
D55*
%TO.N,TX*%
X127018000Y-79520000D02*
X128016000Y-80518000D01*
X124530000Y-79520000D02*
X127018000Y-79520000D01*
%TO.N,GND*%
X151770000Y-102108000D02*
X153548000Y-103886000D01*
X159258000Y-103886000D02*
X159766000Y-103378000D01*
X153548000Y-103886000D02*
X159258000Y-103886000D01*
%TO.N,Net-(SW1A-C)*%
X156718000Y-100838000D02*
X156718000Y-102616000D01*
%TO.N,GND*%
X156972000Y-109474000D02*
X159766000Y-106680000D01*
X156718000Y-109728000D02*
X156972000Y-109474000D01*
X156718000Y-109220000D02*
X156718000Y-107616000D01*
X156972000Y-109474000D02*
X156718000Y-109220000D01*
%TO.N,C_1*%
X103378000Y-90932000D02*
X104778000Y-90932000D01*
X95908500Y-81430500D02*
X95250000Y-80772000D01*
X88392000Y-83312000D02*
X88392000Y-85852000D01*
X95908500Y-82954500D02*
X101854000Y-88900000D01*
X95908500Y-82804000D02*
X95908500Y-82954500D01*
X89662000Y-82042000D02*
X88392000Y-83312000D01*
X106030000Y-89680000D02*
X107030000Y-89680000D01*
X92456000Y-82042000D02*
X89662000Y-82042000D01*
X104778000Y-90932000D02*
X106030000Y-89680000D01*
X95908500Y-82804000D02*
X95908500Y-81430500D01*
%TO.N,GND*%
X92964000Y-87630000D02*
X92964000Y-85090000D01*
X112268000Y-121981630D02*
X112268000Y-122682000D01*
X144650000Y-105410000D02*
X142110000Y-107950000D01*
X122428000Y-110998000D02*
X122936000Y-111506000D01*
D56*
X125204000Y-74440000D02*
X126238000Y-73406000D01*
D55*
X122936000Y-111506000D02*
X123190000Y-111506000D01*
X154360000Y-86310000D02*
X154360000Y-87790000D01*
X147408000Y-79590000D02*
X145060000Y-79590000D01*
X132060000Y-107160000D02*
X132695000Y-106525000D01*
X156718000Y-92964000D02*
X152698500Y-92964000D01*
X151964000Y-90860000D02*
X152146000Y-90678000D01*
X118933500Y-106426000D02*
X118933500Y-104357500D01*
D56*
X130302000Y-73406000D02*
X133604000Y-76708000D01*
D55*
X124530000Y-74440000D02*
X121648000Y-74440000D01*
X110070000Y-92368000D02*
X110070000Y-92200000D01*
D56*
X118110000Y-77978000D02*
X114554000Y-77978000D01*
X154540000Y-77300000D02*
X155210000Y-77300000D01*
D55*
X106426000Y-97600000D02*
X106426000Y-96012000D01*
X142494000Y-122936000D02*
X148580000Y-122936000D01*
X94234000Y-88900000D02*
X92964000Y-87630000D01*
X148082000Y-74930000D02*
X149115000Y-75963000D01*
X148012000Y-97282000D02*
X150622000Y-97282000D01*
X130220000Y-107160000D02*
X132060000Y-107160000D01*
D56*
X152380000Y-77070000D02*
X152380000Y-76680000D01*
D55*
X151120000Y-120904000D02*
X150866000Y-120650000D01*
X138187999Y-104902000D02*
X136906000Y-104902000D01*
X149115000Y-75963000D02*
X149115000Y-77030000D01*
X159766000Y-100076000D02*
X157734000Y-98044000D01*
D56*
X155210000Y-84180000D02*
X155850000Y-84820000D01*
D55*
X146050000Y-111506000D02*
X146050000Y-112268000D01*
X149073000Y-111506000D02*
X155450000Y-111506000D01*
X148590000Y-82172500D02*
X148590000Y-80772000D01*
X140332000Y-106172000D02*
X142110000Y-107950000D01*
D56*
X155210000Y-83700000D02*
X155210000Y-84180000D01*
X112363000Y-99219000D02*
X113792000Y-100648000D01*
D55*
X92202000Y-84328000D02*
X92166000Y-84364000D01*
X107967996Y-74440000D02*
X108965996Y-75438000D01*
X151662500Y-91161500D02*
X152146000Y-90678000D01*
X145060000Y-79590000D02*
X141110000Y-79590000D01*
D56*
X133096000Y-117094000D02*
X133604000Y-116586000D01*
D55*
X102108000Y-77978000D02*
X101600000Y-78486000D01*
X156621000Y-97790000D02*
X157480000Y-97790000D01*
D56*
X151792500Y-75492500D02*
X152680000Y-76380000D01*
D55*
X156718000Y-120904000D02*
X151120000Y-120904000D01*
X139258000Y-106172000D02*
X139258000Y-105972001D01*
X133096000Y-88138000D02*
X132842000Y-87884000D01*
X144018000Y-110490000D02*
X144018000Y-109858000D01*
X106426000Y-97600000D02*
X106490000Y-97600000D01*
X119822000Y-97028000D02*
X119822000Y-96586000D01*
X152908000Y-89916000D02*
X154360000Y-89916000D01*
X114450500Y-79605500D02*
X115100000Y-80255000D01*
X141110000Y-79590000D02*
X138335000Y-76815000D01*
X132842000Y-83008000D02*
X133485000Y-82365000D01*
X132695000Y-106525000D02*
X132080000Y-107140000D01*
X149098000Y-112522000D02*
X149073000Y-112497000D01*
D56*
X155210000Y-77300000D02*
X155210000Y-76820000D01*
X121648000Y-74440000D02*
X118110000Y-77978000D01*
D55*
X155450000Y-111506000D02*
X156718000Y-110238000D01*
D56*
X134112000Y-116586000D02*
X133604000Y-116586000D01*
D55*
X112268000Y-122682000D02*
X112268000Y-121212000D01*
D56*
X124530000Y-74440000D02*
X125204000Y-74440000D01*
D55*
X146270000Y-95540000D02*
X148012000Y-97282000D01*
X156972000Y-96520000D02*
X156972000Y-93218000D01*
D56*
X152680000Y-76380000D02*
X154160000Y-76380000D01*
D55*
X152698500Y-92964000D02*
X151662500Y-94000000D01*
X95504000Y-88900000D02*
X94234000Y-88900000D01*
X138335000Y-76815000D02*
X140101000Y-76815000D01*
X139258000Y-105972001D02*
X138187999Y-104902000D01*
X120076000Y-101788000D02*
X120396000Y-102108000D01*
X132080000Y-107140000D02*
X132080000Y-108966000D01*
X151020000Y-90860000D02*
X151638000Y-90860000D01*
X120650000Y-96266000D02*
X122271000Y-96266000D01*
X122271000Y-96266000D02*
X122271000Y-99060000D01*
X134087000Y-87376000D02*
X134087000Y-87909000D01*
X121569750Y-109062250D02*
X122428000Y-109920500D01*
X148590000Y-80772000D02*
X147408000Y-79590000D01*
X138148000Y-123444000D02*
X138148000Y-123218000D01*
D56*
X135987000Y-117953000D02*
X139700000Y-121666000D01*
X115824000Y-104394000D02*
X116901500Y-104394000D01*
D55*
X139700000Y-121666000D02*
X139902501Y-121463499D01*
D56*
X90372000Y-111216000D02*
X90372000Y-115860000D01*
X116901500Y-104394000D02*
X118933500Y-106426000D01*
D55*
X130048000Y-112776000D02*
X129032000Y-113792000D01*
X118933500Y-106426000D02*
X121569750Y-109062250D01*
X146304000Y-112522000D02*
X149098000Y-112522000D01*
X151632500Y-86620000D02*
X151632500Y-90854500D01*
X139902501Y-121463499D02*
X141375001Y-122936000D01*
X133858000Y-88138000D02*
X133096000Y-88138000D01*
X141375001Y-122936000D02*
X142494000Y-122936000D01*
D56*
X154385000Y-91460000D02*
X154385000Y-89941000D01*
D55*
X121569750Y-109062250D02*
X121666000Y-109158500D01*
X140101000Y-76815000D02*
X141986000Y-74930000D01*
X145060000Y-79590000D02*
X143344000Y-79590000D01*
X149777500Y-83360000D02*
X148590000Y-82172500D01*
X141986000Y-74930000D02*
X148082000Y-74930000D01*
D56*
X154385000Y-89941000D02*
X154360000Y-89916000D01*
D55*
X157734000Y-97282000D02*
X156972000Y-96520000D01*
X156972000Y-93218000D02*
X156718000Y-92964000D01*
D56*
X151792500Y-74300000D02*
X151792500Y-75492500D01*
X114554000Y-77978000D02*
X113815500Y-78716500D01*
X134686000Y-117348000D02*
X135987000Y-117348000D01*
D55*
X156718000Y-110238000D02*
X156718000Y-109728000D01*
D56*
X152380000Y-77070000D02*
X149155000Y-77070000D01*
D55*
X116586000Y-114808000D02*
X116586000Y-118157000D01*
X120396000Y-102108000D02*
X121255000Y-102108000D01*
X106490000Y-97600000D02*
X106680000Y-97790000D01*
D56*
X113815500Y-78716500D02*
X113561500Y-78716500D01*
X134366000Y-116332000D02*
X134112000Y-116586000D01*
D55*
X154360000Y-87790000D02*
X154360000Y-89916000D01*
X150622000Y-97282000D02*
X151662500Y-96241500D01*
X121255000Y-102108000D02*
X122271000Y-101092000D01*
X122271000Y-101092000D02*
X122271000Y-99060000D01*
D56*
X149155000Y-77070000D02*
X149115000Y-77030000D01*
D55*
X120167000Y-103124000D02*
X120167000Y-102337000D01*
X92964000Y-85090000D02*
X92202000Y-84328000D01*
X145034000Y-111506000D02*
X144018000Y-110490000D01*
X154360000Y-91435000D02*
X154385000Y-91460000D01*
X92166000Y-84364000D02*
X90372000Y-84364000D01*
X120076000Y-101092000D02*
X120076000Y-101788000D01*
X109285000Y-74440000D02*
X113561500Y-78716500D01*
D56*
X135987000Y-117348000D02*
X135987000Y-117953000D01*
D55*
X107569000Y-116205000D02*
X107569000Y-117282630D01*
X138148000Y-123218000D02*
X139700000Y-121666000D01*
D56*
X154160000Y-76380000D02*
X154160000Y-76920000D01*
D55*
X123190000Y-111506000D02*
X125984000Y-111506000D01*
X122428000Y-109920500D02*
X122428000Y-110998000D01*
D56*
X126238000Y-73406000D02*
X130302000Y-73406000D01*
D55*
X116586000Y-118157000D02*
X117047000Y-118618000D01*
X112268000Y-121212000D02*
X114862000Y-118618000D01*
D56*
X134686000Y-116652000D02*
X134366000Y-116332000D01*
D55*
X144018000Y-109858000D02*
X142110000Y-107950000D01*
X157734000Y-98044000D02*
X157734000Y-97282000D01*
X129540000Y-119380000D02*
X131826000Y-117094000D01*
X152146000Y-90678000D02*
X152908000Y-89916000D01*
X138148000Y-123444000D02*
X139672000Y-123444000D01*
X120167000Y-102337000D02*
X120396000Y-102108000D01*
D56*
X155210000Y-76820000D02*
X155850000Y-76180000D01*
D55*
X106426000Y-96012000D02*
X110070000Y-92368000D01*
X131826000Y-117094000D02*
X133096000Y-117094000D01*
X130048000Y-111251966D02*
X130048000Y-112776000D01*
D56*
X90372000Y-115860000D02*
X90118000Y-116114000D01*
D55*
X146050000Y-111506000D02*
X145034000Y-111506000D01*
X146401000Y-105410000D02*
X144650000Y-105410000D01*
X151662500Y-96241500D02*
X151662500Y-94000000D01*
X139258000Y-106172000D02*
X140332000Y-106172000D01*
X151638000Y-90860000D02*
X151964000Y-90860000D01*
X119822000Y-96586000D02*
X120396000Y-96012000D01*
X114862000Y-118618000D02*
X117047000Y-118618000D01*
X146050000Y-112268000D02*
X146304000Y-112522000D01*
X135987000Y-117348000D02*
X135987000Y-117547999D01*
D56*
X154160000Y-76920000D02*
X154540000Y-77300000D01*
D55*
X121666000Y-109158500D02*
X121666000Y-109728000D01*
X159766000Y-106680000D02*
X159766000Y-103378000D01*
X115100000Y-80988000D02*
X115100000Y-81017500D01*
D56*
X152380000Y-76680000D02*
X152680000Y-76380000D01*
D55*
X107030000Y-74440000D02*
X109285000Y-74440000D01*
X159766000Y-103378000D02*
X159766000Y-100076000D01*
X113561500Y-78716500D02*
X114450500Y-79605500D01*
X118933500Y-104357500D02*
X120167000Y-103124000D01*
X157480000Y-97790000D02*
X157734000Y-98044000D01*
X107569000Y-117282630D02*
X112268000Y-121981630D01*
X120396000Y-96012000D02*
X120650000Y-96266000D01*
D56*
X134686000Y-117348000D02*
X134686000Y-116652000D01*
D55*
X134087000Y-87909000D02*
X133858000Y-88138000D01*
X132842000Y-87884000D02*
X132842000Y-83008000D01*
D56*
X113792000Y-100648000D02*
X113792000Y-106680000D01*
D55*
X107030000Y-74440000D02*
X107967996Y-74440000D01*
X104394000Y-77978000D02*
X102108000Y-77978000D01*
X155850000Y-84820000D02*
X154360000Y-86310000D01*
X148580000Y-122936000D02*
X150866000Y-120650000D01*
X151662500Y-94000000D02*
X151662500Y-91161500D01*
X149073000Y-112497000D02*
X149073000Y-111506000D01*
X151632500Y-90854500D02*
X151638000Y-90860000D01*
%TO.N,RX1*%
X107442000Y-110744000D02*
X105410000Y-108712000D01*
X116332000Y-87630000D02*
X122428000Y-87630000D01*
X100330000Y-108712000D02*
X100330000Y-106426000D01*
X115824000Y-87122000D02*
X116332000Y-87630000D01*
X105410000Y-108712000D02*
X104902000Y-108712000D01*
X114808000Y-87122000D02*
X115824000Y-87122000D01*
X114808000Y-120650000D02*
X114554000Y-120396000D01*
X116078000Y-110490000D02*
X110744000Y-110490000D01*
X99314000Y-99568000D02*
X98298000Y-98552000D01*
X114102000Y-117546000D02*
X114102000Y-112466000D01*
X114808000Y-122682000D02*
X114808000Y-120650000D01*
X110744000Y-110490000D02*
X110490000Y-110236000D01*
X99314000Y-101092000D02*
X99314000Y-99568000D01*
X112776000Y-118872000D02*
X114102000Y-117546000D01*
X114102000Y-112466000D02*
X116078000Y-110490000D01*
X123208000Y-88410000D02*
X124530000Y-88410000D01*
X122428000Y-87630000D02*
X123208000Y-88410000D01*
%TO.N,TX1*%
X98806000Y-82804000D02*
X99314000Y-83312000D01*
X105918000Y-122682000D02*
X108966000Y-125730000D01*
X92964000Y-102362000D02*
X87884000Y-102362000D01*
X115516000Y-125984000D02*
X117348000Y-124152000D01*
X108966000Y-125730000D02*
X115262000Y-125730000D01*
X117348000Y-124152000D02*
X117348000Y-122682000D01*
X109982000Y-85090000D02*
X109220000Y-84328000D01*
X87122000Y-123067652D02*
X87969348Y-123915000D01*
X95250000Y-122682000D02*
X105918000Y-122682000D01*
X93218000Y-96266000D02*
X92964000Y-96520000D01*
X124530000Y-87140000D02*
X123208000Y-87140000D01*
X87884000Y-102362000D02*
X87122000Y-103124000D01*
X115262000Y-125730000D02*
X115516000Y-125984000D01*
X100330000Y-84582000D02*
X102362000Y-86614000D01*
X123208000Y-87140000D02*
X122936000Y-86868000D01*
X99314000Y-83312000D02*
X100330000Y-83312000D01*
X94017000Y-123915000D02*
X95250000Y-122682000D01*
X87122000Y-103124000D02*
X87122000Y-123067652D01*
X92964000Y-96520000D02*
X92964000Y-102362000D01*
X87969348Y-123915000D02*
X94017000Y-123915000D01*
X122936000Y-86868000D02*
X119634000Y-86868000D01*
X100330000Y-83312000D02*
X100330000Y-84582000D01*
X114300000Y-85090000D02*
X109982000Y-85090000D01*
%TO.N,Io0*%
X117856000Y-97639500D02*
X117856000Y-97536000D01*
D57*
X135128000Y-88138000D02*
X134366000Y-88900000D01*
D55*
X109474000Y-106172000D02*
X111506000Y-108204000D01*
X120396000Y-94996000D02*
X127508000Y-94996000D01*
X127508000Y-94996000D02*
X127762000Y-94742000D01*
X117856000Y-97536000D02*
X120396000Y-94996000D01*
X93472000Y-105664000D02*
X93726000Y-105410000D01*
X126746000Y-91186000D02*
X124766000Y-91186000D01*
X93726000Y-105410000D02*
X98044000Y-105410000D01*
X111506000Y-108204000D02*
X114808000Y-108204000D01*
X109474000Y-105410000D02*
X109474000Y-106172000D01*
X93218000Y-105664000D02*
X93472000Y-105664000D01*
D57*
X136222500Y-88138000D02*
X135128000Y-88138000D01*
D55*
X126746000Y-93726000D02*
X126746000Y-91186000D01*
X114808000Y-108204000D02*
X115316000Y-107696000D01*
X90932000Y-103378000D02*
X93218000Y-105664000D01*
X117602000Y-97385500D02*
X117856000Y-97639500D01*
X98044000Y-105410000D02*
X98044000Y-107696000D01*
X124766000Y-91186000D02*
X124530000Y-90950000D01*
X117602000Y-96266000D02*
X117602000Y-97385500D01*
X127762000Y-94742000D02*
X126746000Y-93726000D01*
%TO.N,Net-(BZ1-+)*%
X138186000Y-115570000D02*
X143266000Y-120650000D01*
X132992500Y-115570000D02*
X138186000Y-115570000D01*
%TO.N,VBUS*%
X139700000Y-104140000D02*
X140208000Y-104648000D01*
X127508000Y-108798000D02*
X127530000Y-108820000D01*
X147828000Y-81758000D02*
X147828000Y-83556695D01*
X150876000Y-98298000D02*
X149860000Y-99314000D01*
X127490000Y-110998000D02*
X127490000Y-108860000D01*
X145060000Y-81290000D02*
X147360000Y-81290000D01*
X147503948Y-83880747D02*
X147503948Y-84628701D01*
X127490000Y-108860000D02*
X127530000Y-108820000D01*
X155448000Y-92202000D02*
X157734000Y-92202000D01*
X152908000Y-94488000D02*
X154208000Y-94488000D01*
X151384000Y-98298000D02*
X153670000Y-98298000D01*
X121412000Y-103124000D02*
X121666000Y-102870000D01*
D56*
X153745000Y-92023000D02*
X154178000Y-92456000D01*
D55*
X155194000Y-92456000D02*
X155448000Y-92202000D01*
X138618000Y-106172000D02*
X138618000Y-106371999D01*
X149860000Y-103632000D02*
X150876000Y-104648000D01*
X157480000Y-88900000D02*
X157402500Y-88822500D01*
X123444000Y-110744000D02*
X127236000Y-110744000D01*
X154208000Y-94488000D02*
X154840000Y-95120000D01*
X127508000Y-106426000D02*
X127508000Y-108798000D01*
X154840000Y-97128000D02*
X154840000Y-95120000D01*
X127490000Y-113410000D02*
X127490000Y-110998000D01*
X147828000Y-83556695D02*
X147503948Y-83880747D01*
X138963001Y-106717000D02*
X139229000Y-106717000D01*
X154178000Y-97790000D02*
X154840000Y-97128000D01*
X135636000Y-102870000D02*
X138430000Y-102870000D01*
X138618000Y-106371999D02*
X138963001Y-106717000D01*
X153670000Y-98298000D02*
X154178000Y-97790000D01*
X155448000Y-92202000D02*
X157480000Y-90170000D01*
X151384000Y-98298000D02*
X150876000Y-98298000D01*
X157402500Y-88822500D02*
X157402500Y-88220000D01*
X149860000Y-99314000D02*
X149860000Y-103632000D01*
D56*
X154178000Y-92456000D02*
X155194000Y-92456000D01*
D55*
X120807000Y-103124000D02*
X121412000Y-103124000D01*
X139229000Y-106717000D02*
X140462000Y-107950000D01*
D56*
X153745000Y-91460000D02*
X153745000Y-92023000D01*
D55*
X157480000Y-90170000D02*
X157480000Y-88900000D01*
X147360000Y-81290000D02*
X147828000Y-81758000D01*
X138430000Y-102870000D02*
X139700000Y-104140000D01*
X127236000Y-110744000D02*
X127490000Y-110998000D01*
D56*
%TO.N,+5V*%
X153500000Y-77070000D02*
X153020000Y-77070000D01*
D55*
X160782000Y-88646000D02*
X160258000Y-89170000D01*
X135170000Y-104436000D02*
X133858000Y-103124000D01*
X131037000Y-109247000D02*
X130556000Y-109728000D01*
X153155000Y-84385000D02*
X153720000Y-83820000D01*
X160274000Y-86360000D02*
X160782000Y-86868000D01*
X158750000Y-83820000D02*
X158750000Y-86360000D01*
X158840000Y-89607500D02*
X158840000Y-95120000D01*
X130220000Y-108430000D02*
X131037000Y-109247000D01*
X160844860Y-95874860D02*
X160844860Y-102170860D01*
X144780000Y-113284000D02*
X140970000Y-109474000D01*
D56*
X153020000Y-77550000D02*
X152790000Y-77780000D01*
D55*
X153548000Y-78100000D02*
X152400000Y-79248000D01*
X159277500Y-89170000D02*
X158840000Y-89607500D01*
X136906000Y-109982000D02*
X131772000Y-109982000D01*
X135170000Y-104620000D02*
X135170000Y-104436000D01*
X158750000Y-86360000D02*
X160274000Y-86360000D01*
X147273695Y-113067000D02*
X147056695Y-113284000D01*
X159221000Y-113067000D02*
X147273695Y-113067000D01*
X131772000Y-109982000D02*
X131037000Y-109247000D01*
X150765000Y-84055100D02*
X151094900Y-84385000D01*
D56*
X155210000Y-78100000D02*
X154530000Y-78100000D01*
D55*
X160258000Y-89170000D02*
X159277500Y-89170000D01*
X160090000Y-95120000D02*
X160844860Y-95874860D01*
X150765000Y-82431545D02*
X150765000Y-84055100D01*
X137414000Y-109474000D02*
X136906000Y-109982000D01*
X160844860Y-102170860D02*
X160825836Y-111462164D01*
X158840000Y-95120000D02*
X160090000Y-95120000D01*
X147056695Y-113284000D02*
X144780000Y-113284000D01*
D56*
X148475000Y-77555000D02*
X148475000Y-77030000D01*
D55*
X150690195Y-82356740D02*
X150765000Y-82431545D01*
D56*
X154530000Y-78100000D02*
X153500000Y-77070000D01*
D55*
X153720000Y-83740001D02*
X154560001Y-82900000D01*
X153720000Y-87790000D02*
X153720000Y-83820000D01*
X153720000Y-83820000D02*
X153720000Y-83740001D01*
D56*
X153020000Y-77070000D02*
X153020000Y-77550000D01*
X152790000Y-77780000D02*
X148700000Y-77780000D01*
D55*
X160782000Y-86868000D02*
X160782000Y-88646000D01*
X160825836Y-111462164D02*
X159221000Y-113067000D01*
X154560001Y-82900000D02*
X155210000Y-82900000D01*
X151094900Y-84385000D02*
X153155000Y-84385000D01*
X130556000Y-109728000D02*
X129239299Y-109728000D01*
D56*
X148700000Y-77780000D02*
X148475000Y-77555000D01*
D55*
X140970000Y-109474000D02*
X137414000Y-109474000D01*
X155210000Y-78100000D02*
X153548000Y-78100000D01*
%TO.N,EN*%
X136222500Y-93218000D02*
X136222500Y-92280500D01*
X99568000Y-76962000D02*
X99586000Y-76980000D01*
X130302000Y-84582000D02*
X130302000Y-75184000D01*
X136144000Y-91948000D02*
X137160000Y-90932000D01*
X136222500Y-92280500D02*
X135890000Y-91948000D01*
X99586000Y-76980000D02*
X107030000Y-76980000D01*
X109536000Y-78486000D02*
X110236000Y-78486000D01*
X135890000Y-91948000D02*
X136144000Y-91948000D01*
X131572000Y-85852000D02*
X130302000Y-84582000D01*
X122911000Y-101092000D02*
X122911000Y-101625000D01*
X92710000Y-73914000D02*
X92710000Y-75692000D01*
X126492000Y-100584000D02*
X127000000Y-100584000D01*
X86105988Y-73954008D02*
X86145996Y-73914000D01*
X92710000Y-75692000D02*
X92710000Y-77978000D01*
X122911000Y-101625000D02*
X122682000Y-101854000D01*
X86145996Y-73914000D02*
X92710000Y-73914000D01*
X107030000Y-76980000D02*
X108030000Y-76980000D01*
X108030000Y-76980000D02*
X109536000Y-78486000D01*
X127000000Y-100584000D02*
X128016000Y-99568000D01*
%TO.N,Net-(U4-XI)*%
X146214000Y-99606396D02*
X144526000Y-97918396D01*
X144526000Y-97918396D02*
X144526000Y-88689001D01*
X144526000Y-88689001D02*
X145295001Y-87920000D01*
X146214000Y-101346000D02*
X146214000Y-99606396D01*
X151130000Y-102108000D02*
X151130000Y-103378000D01*
X145295001Y-87920000D02*
X146270000Y-87920000D01*
%TO.N,Net-(U4-XO)*%
X142748000Y-85852000D02*
X143510000Y-86614000D01*
X141334000Y-101346000D02*
X143510000Y-99170000D01*
X133447000Y-87376000D02*
X133447000Y-86263000D01*
X133858000Y-85852000D02*
X142748000Y-85852000D01*
X133447000Y-86263000D02*
X133858000Y-85852000D01*
X143510000Y-99170000D02*
X143510000Y-86614000D01*
X143510000Y-86614000D02*
X143546000Y-86650000D01*
X143546000Y-86650000D02*
X146270000Y-86650000D01*
%TO.N,+BATT*%
X135170000Y-108430000D02*
X134634000Y-108966000D01*
X150876000Y-113792000D02*
X147574000Y-113792000D01*
X157078000Y-87270000D02*
X156972000Y-87376000D01*
X137668000Y-112098000D02*
X137330000Y-111760000D01*
X156972000Y-87376000D02*
X156833092Y-87376000D01*
X159277500Y-87270000D02*
X157078000Y-87270000D01*
X136568000Y-112522000D02*
X137330000Y-111760000D01*
X146690000Y-111506000D02*
X148433000Y-111506000D01*
X155956000Y-88253092D02*
X155956000Y-89408000D01*
X147066000Y-114300000D02*
X144272000Y-114300000D01*
X152908000Y-115824000D02*
X150876000Y-113792000D01*
X146690000Y-110866000D02*
X147066000Y-110490000D01*
X146690000Y-111506000D02*
X146690000Y-110866000D01*
X147066000Y-110490000D02*
X151892000Y-110490000D01*
X155981000Y-97790000D02*
X155981000Y-98019000D01*
X137668000Y-113538000D02*
X137668000Y-112098000D01*
X156718000Y-115824000D02*
X158750000Y-115824000D01*
X155981000Y-98019000D02*
X154686000Y-99314000D01*
X156833092Y-87376000D02*
X155956000Y-88253092D01*
X158750000Y-115824000D02*
X159512000Y-115062000D01*
X135636000Y-112522000D02*
X136568000Y-112522000D01*
X156718000Y-115824000D02*
X152908000Y-115824000D01*
X147574000Y-113792000D02*
X147066000Y-114300000D01*
X134634000Y-108966000D02*
X133096000Y-108966000D01*
%TO.N,Net-(D2-A)*%
X144910000Y-107950000D02*
X145568500Y-108608500D01*
X145568500Y-108608500D02*
X148590000Y-108608500D01*
%TO.N,RX*%
X124512000Y-78232000D02*
X124530000Y-78250000D01*
X129032000Y-96266000D02*
X128902000Y-96136000D01*
X149098000Y-118618000D02*
X152400000Y-118618000D01*
X122174000Y-78232000D02*
X124512000Y-78232000D01*
X146270000Y-93000000D02*
X147864000Y-93000000D01*
X128524000Y-95758000D02*
X124968000Y-95758000D01*
X148844000Y-93980000D02*
X148844000Y-94996000D01*
X128778000Y-93850000D02*
X128902000Y-93726000D01*
X147864000Y-93000000D02*
X148844000Y-93980000D01*
X122682000Y-91694000D02*
X122682000Y-90932000D01*
X152400000Y-118618000D02*
X153670000Y-117348000D01*
X129032000Y-96266000D02*
X128524000Y-95758000D01*
X128902000Y-96136000D02*
X128902000Y-93726000D01*
X124460000Y-93472000D02*
X122682000Y-91694000D01*
%TO.N,Net-(D3-A)*%
X118872000Y-100584000D02*
X118872000Y-101647000D01*
X127508000Y-89916000D02*
X126238000Y-89916000D01*
X128908000Y-90932000D02*
X128524000Y-90932000D01*
X131702000Y-93726000D02*
X128908000Y-90932000D01*
X118872000Y-101647000D02*
X118411000Y-102108000D01*
X128524000Y-90932000D02*
X127508000Y-89916000D01*
%TO.N,TX*%
X154686000Y-102362000D02*
X153670000Y-102362000D01*
X159766000Y-114046000D02*
X159512000Y-113792000D01*
X148082000Y-95107001D02*
X148082000Y-95757994D01*
X146270000Y-94270000D02*
X147244999Y-94270000D01*
X145542000Y-124460000D02*
X146050000Y-123952000D01*
X153670000Y-102362000D02*
X152654000Y-101346000D01*
X160274000Y-114046000D02*
X159766000Y-114046000D01*
X128016000Y-125222000D02*
X128524000Y-125730000D01*
X131696000Y-91440000D02*
X133096000Y-91440000D01*
X129286000Y-86106000D02*
X129032000Y-85852000D01*
X160020000Y-116078000D02*
X160528000Y-115570000D01*
X128902000Y-88646000D02*
X131696000Y-91440000D01*
X151384000Y-117856000D02*
X152146000Y-117094000D01*
X160528000Y-115570000D02*
X160528000Y-114300000D01*
X128524000Y-125730000D02*
X145542000Y-125730000D01*
X133096000Y-91440000D02*
X133096000Y-93218000D01*
X133096000Y-93218000D02*
X133350000Y-93472000D01*
X148082000Y-100838000D02*
X146812004Y-99568004D01*
X160528000Y-114300000D02*
X160274000Y-114046000D01*
X147244999Y-94270000D02*
X148082000Y-95107001D01*
X145542000Y-125730000D02*
X145542000Y-124460000D01*
X129286000Y-86106000D02*
X128902000Y-86490000D01*
X147320000Y-117856000D02*
X151384000Y-117856000D01*
X128902000Y-86490000D02*
X128902000Y-88646000D01*
X160020000Y-118364000D02*
X160020000Y-116078000D01*
X146812004Y-99568004D02*
X146812004Y-98552000D01*
%TO.N,Net-(D4-A)*%
X134112000Y-96520000D02*
X133350000Y-97282000D01*
X134112000Y-91056000D02*
X134112000Y-96520000D01*
X133350000Y-97282000D02*
X126388500Y-97282000D01*
X131702000Y-88646000D02*
X134112000Y-91056000D01*
%TO.N,Net-(D5-K)*%
X124730000Y-108820000D02*
X124730000Y-104336500D01*
X124730000Y-104336500D02*
X124563500Y-104170000D01*
%TO.N,Net-(D6-K)*%
X131175000Y-113427000D02*
X129286000Y-115316000D01*
X131175000Y-111730000D02*
X131175000Y-113427000D01*
X129286000Y-115316000D02*
X126596000Y-115316000D01*
X126596000Y-115316000D02*
X124690000Y-113410000D01*
%TO.N,Net-(J1-CC1)*%
X153212500Y-81750000D02*
X155210000Y-81750000D01*
X151602500Y-83360000D02*
X153212500Y-81750000D01*
D58*
%TO.N,D+*%
X155210000Y-80750000D02*
X153438000Y-80750000D01*
X148336000Y-90424000D02*
X148300000Y-90460000D01*
X153438000Y-80750000D02*
X153416000Y-80772000D01*
X155210000Y-79750000D02*
X153676000Y-79750000D01*
X153676000Y-79750000D02*
X153416000Y-80010000D01*
X153416000Y-80010000D02*
X153416000Y-80772000D01*
X148300000Y-90460000D02*
X146270000Y-90460000D01*
%TO.N,D-*%
X157734000Y-83312000D02*
X157734000Y-85344000D01*
X156704000Y-80250000D02*
X156972000Y-80518000D01*
X155892410Y-81250000D02*
X156574205Y-81931795D01*
X156972000Y-81534000D02*
X156574205Y-81931795D01*
X156972000Y-80518000D02*
X156972000Y-81534000D01*
X156574205Y-81931795D02*
X157734000Y-83091590D01*
X155956000Y-87122000D02*
X155702000Y-87122000D01*
X155210000Y-80250000D02*
X156704000Y-80250000D01*
X149316000Y-89190000D02*
X146270000Y-89190000D01*
X157734000Y-85344000D02*
X156210000Y-86868000D01*
X149352000Y-89154000D02*
X149316000Y-89190000D01*
X155210000Y-81250000D02*
X155892410Y-81250000D01*
X156210000Y-86868000D02*
X155956000Y-87122000D01*
X157734000Y-83091590D02*
X157734000Y-83312000D01*
D56*
%TO.N,Net-(J1-CC2)*%
X153340223Y-73199805D02*
X153360418Y-73220000D01*
X155930000Y-73220000D02*
X157780000Y-75070000D01*
X157490000Y-78750000D02*
X155210000Y-78750000D01*
X157780000Y-75070000D02*
X157780000Y-78460000D01*
X153334383Y-73205645D02*
X153340223Y-73199805D01*
X149967500Y-74222500D02*
X150984355Y-73205645D01*
X149967500Y-74300000D02*
X149967500Y-74222500D01*
X157780000Y-78460000D02*
X157490000Y-78750000D01*
X150984355Y-73205645D02*
X153334383Y-73205645D01*
X153360418Y-73220000D02*
X155930000Y-73220000D01*
D55*
%TO.N,Motor+*%
X121666000Y-123444000D02*
X120650000Y-122428000D01*
X131318000Y-123444000D02*
X121666000Y-123444000D01*
X116586000Y-86360000D02*
X117076000Y-85870000D01*
X115824000Y-94742000D02*
X116586000Y-93980000D01*
X115824000Y-96520000D02*
X115824000Y-94742000D01*
X117076000Y-85870000D02*
X124530000Y-85870000D01*
%TO.N,SCL*%
X121140000Y-76980000D02*
X119634000Y-78486000D01*
X85344000Y-116840000D02*
X85344000Y-118364000D01*
X101346000Y-121666000D02*
X101473000Y-121793000D01*
X101092000Y-121920000D02*
X101346000Y-121666000D01*
X85344000Y-103378000D02*
X85344000Y-106426000D01*
X91694000Y-92964000D02*
X92202000Y-93472000D01*
X101473000Y-121793000D02*
X103505000Y-121793000D01*
X86111143Y-76966143D02*
X87117857Y-76966143D01*
X110109000Y-114808000D02*
X110109000Y-111887000D01*
X92710000Y-122428000D02*
X93218000Y-121920000D01*
X84836000Y-118872000D02*
X85344000Y-119380000D01*
X87376000Y-79502000D02*
X87376000Y-83058000D01*
X85598000Y-106680000D02*
X85598000Y-116586000D01*
X89154000Y-122428000D02*
X92710000Y-122428000D01*
X92202000Y-93472000D02*
X92202000Y-95758000D01*
X110109000Y-116205000D02*
X110109000Y-114808000D01*
X86868000Y-89662000D02*
X90170000Y-92964000D01*
X105410000Y-119888000D02*
X104648000Y-119126000D01*
X85344000Y-119380000D02*
X85344000Y-121666000D01*
X109855000Y-114554000D02*
X110109000Y-114808000D01*
X110109000Y-111887000D02*
X104902000Y-106680000D01*
X85598000Y-116586000D02*
X85344000Y-116840000D01*
X86868000Y-87884000D02*
X86868000Y-89662000D01*
X92456000Y-96012000D02*
X91440000Y-97028000D01*
X87376000Y-83058000D02*
X86868000Y-83566000D01*
X90170000Y-92964000D02*
X91694000Y-92964000D01*
X85344000Y-118364000D02*
X84836000Y-118872000D01*
X109990500Y-101759000D02*
X108712000Y-100480500D01*
X87122000Y-97536000D02*
X87122000Y-101854000D01*
X86868000Y-83566000D02*
X86868000Y-87884000D01*
X113284000Y-75946000D02*
X112268000Y-75946000D01*
X124530000Y-76980000D02*
X121140000Y-76980000D01*
X101346000Y-74930000D02*
X99060000Y-74930000D01*
X91440000Y-97028000D02*
X89408000Y-97028000D01*
X112363000Y-101759000D02*
X109990500Y-101759000D01*
X103505000Y-121793000D02*
X105410000Y-119888000D01*
X104648000Y-119126000D02*
X103886000Y-119126000D01*
X85344000Y-106426000D02*
X85598000Y-106680000D01*
X99060000Y-74930000D02*
X98298000Y-75692000D01*
X101600000Y-114554000D02*
X109855000Y-114554000D01*
X85090000Y-103124000D02*
X85344000Y-103378000D01*
X101600000Y-116840000D02*
X101600000Y-114554000D01*
X92202000Y-95758000D02*
X92456000Y-96012000D01*
X103886000Y-119126000D02*
X101600000Y-116840000D01*
X93218000Y-121920000D02*
X101092000Y-121920000D01*
X112268000Y-75946000D02*
X110490000Y-74168000D01*
X87117857Y-76966143D02*
X88900000Y-75184000D01*
X88646000Y-121920000D02*
X89154000Y-122428000D01*
D56*
%TO.N,SDA*%
X93218000Y-123190000D02*
X93472000Y-122936000D01*
X105156000Y-121666000D02*
X106426000Y-120396000D01*
X119126000Y-79502000D02*
X118364000Y-79502000D01*
X106426000Y-120396000D02*
X107188000Y-120396000D01*
D55*
X103124000Y-108966000D02*
X103124000Y-106680000D01*
D56*
X88392000Y-122935996D02*
X89153996Y-122935996D01*
X86868000Y-77470000D02*
X85344000Y-78994000D01*
D55*
X112649000Y-116205000D02*
X112649000Y-111633000D01*
X103886000Y-108966000D02*
X103124000Y-108966000D01*
X104648000Y-100902000D02*
X104648000Y-100480500D01*
D56*
X95758000Y-123698000D02*
X96012000Y-123952000D01*
X103886000Y-80010000D02*
X100838000Y-80010000D01*
X88900000Y-77470000D02*
X86868000Y-77470000D01*
D55*
X106731750Y-102564250D02*
X104648000Y-100480500D01*
D56*
X118364000Y-79502000D02*
X117856000Y-78994000D01*
X89153996Y-122935996D02*
X89408000Y-123190000D01*
D55*
X108466500Y-104299000D02*
X106731750Y-102564250D01*
D56*
X100838000Y-80010000D02*
X99568000Y-78740000D01*
D55*
X112363000Y-104299000D02*
X108466500Y-104299000D01*
D56*
X117856000Y-78994000D02*
X116078000Y-78994000D01*
D55*
X106934000Y-112014000D02*
X103886000Y-108966000D01*
X112649000Y-111633000D02*
X112776000Y-111506000D01*
D56*
X111252000Y-118872000D02*
X112649000Y-117475000D01*
X89408000Y-123190000D02*
X93218000Y-123190000D01*
X96012000Y-123952000D02*
X105156000Y-123952000D01*
D55*
X105918000Y-103378000D02*
X106731750Y-102564250D01*
D56*
X120414000Y-80790000D02*
X119126000Y-79502000D01*
X112649000Y-117475000D02*
X112649000Y-116205000D01*
X124530000Y-80790000D02*
X120414000Y-80790000D01*
D55*
%TO.N,Net-(Q2-B)*%
X135382000Y-96883500D02*
X138097500Y-94168000D01*
X135382000Y-98505000D02*
X135382000Y-96883500D01*
%TO.N,RTS*%
X131064000Y-100076000D02*
X130810000Y-100330000D01*
X140345001Y-93000000D02*
X139192000Y-94153001D01*
X138097500Y-92268000D02*
X138829500Y-93000000D01*
X136906000Y-96774000D02*
X136906000Y-99314000D01*
X139192000Y-96266000D02*
X138684000Y-96774000D01*
X141320000Y-93000000D02*
X140345001Y-93000000D01*
X132334000Y-100076000D02*
X131064000Y-100076000D01*
X138829500Y-93000000D02*
X141320000Y-93000000D01*
X139192000Y-94153001D02*
X139192000Y-96266000D01*
X138684000Y-96774000D02*
X136906000Y-96774000D01*
%TO.N,Net-(Q3-B)*%
X138097500Y-89088000D02*
X137226000Y-89088000D01*
X134874000Y-96774000D02*
X133143000Y-98505000D01*
X137226000Y-89088000D02*
X134874000Y-91440000D01*
X133143000Y-98505000D02*
X130810000Y-98505000D01*
X134874000Y-91440000D02*
X134874000Y-96774000D01*
%TO.N,DTR*%
X142294999Y-91730000D02*
X141320000Y-91730000D01*
X140345001Y-91730000D02*
X141320000Y-91730000D01*
X138938000Y-100330000D02*
X143002000Y-96266000D01*
X138097500Y-87188000D02*
X139446000Y-88536500D01*
X143002000Y-96266000D02*
X143002000Y-92437001D01*
X143002000Y-92437001D02*
X142294999Y-91730000D01*
X139446000Y-88536500D02*
X139446000Y-90830999D01*
X135382000Y-100330000D02*
X138938000Y-100330000D01*
X139446000Y-90830999D02*
X140345001Y-91730000D01*
%TO.N,Net-(Q4-Pad2)*%
X139530000Y-110810000D02*
X141036000Y-110810000D01*
X141036000Y-110810000D02*
X142748000Y-112522000D01*
X142723000Y-112547000D02*
X142723000Y-114554000D01*
X142748000Y-112522000D02*
X142723000Y-112547000D01*
%TO.N,Select*%
X139530000Y-112710000D02*
X141158000Y-112710000D01*
X141158000Y-112710000D02*
X141478000Y-113030000D01*
X101854000Y-84836000D02*
X103360000Y-83330000D01*
X109474000Y-108966000D02*
X105918000Y-105410000D01*
X103360000Y-83330000D02*
X107030000Y-83330000D01*
X105918000Y-105410000D02*
X102870000Y-105410000D01*
X119380000Y-108966000D02*
X123190000Y-112776000D01*
D56*
%TO.N,Net-(U2-ADJ)*%
X147759000Y-76589000D02*
X147759000Y-77401000D01*
X147759000Y-77401000D02*
X148336000Y-77978000D01*
X147360000Y-76190000D02*
X147759000Y-76589000D01*
D55*
X149482500Y-78850000D02*
X150766000Y-78850000D01*
X149807500Y-85291500D02*
X149807500Y-86620000D01*
D56*
X149098000Y-78850000D02*
X149482500Y-78850000D01*
X145060000Y-76190000D02*
X147360000Y-76190000D01*
X148336000Y-77978000D02*
X148336000Y-78740000D01*
X149482500Y-78850000D02*
X151642500Y-81010000D01*
X148988000Y-78740000D02*
X149098000Y-78850000D01*
D55*
X150766000Y-78850000D02*
X150876000Y-78740000D01*
X148590000Y-84074000D02*
X149807500Y-85291500D01*
D56*
X148336000Y-78740000D02*
X148988000Y-78740000D01*
D55*
%TO.N,B_check*%
X92905000Y-118305000D02*
X92202000Y-117602000D01*
X88138000Y-100584000D02*
X88138000Y-93726000D01*
X133148222Y-121412000D02*
X133604000Y-121412000D01*
X88392000Y-117602000D02*
X88392000Y-104648000D01*
X106794000Y-87376000D02*
X107030000Y-87140000D01*
X133604000Y-121412000D02*
X135636000Y-123444000D01*
X92202000Y-117602000D02*
X88392000Y-117602000D01*
X99509000Y-118305000D02*
X92905000Y-118305000D01*
D56*
X129540000Y-121412000D02*
X128778000Y-122174000D01*
D55*
X139446000Y-118364000D02*
X139446000Y-119380000D01*
X90932000Y-91440000D02*
X92007000Y-90365000D01*
X104648000Y-87376000D02*
X106794000Y-87376000D01*
X136398000Y-114554000D02*
X142083000Y-114554000D01*
D56*
X136627000Y-117119000D02*
X137414000Y-116332000D01*
X136627000Y-117348000D02*
X136627000Y-117119000D01*
D55*
X128778000Y-122174000D02*
X122174000Y-122174000D01*
D56*
X133148222Y-121412000D02*
X129540000Y-121412000D01*
D55*
X88138000Y-93726000D02*
X86614000Y-92202000D01*
X92007000Y-90365000D02*
X98103000Y-90365000D01*
X99568000Y-118364000D02*
X99509000Y-118305000D01*
X122174000Y-122174000D02*
X121920000Y-121920000D01*
X137414000Y-116332000D02*
X139446000Y-118364000D01*
X135636000Y-124714000D02*
X135636000Y-123444000D01*
X98103000Y-90365000D02*
X100076000Y-88392000D01*
%TO.N,Net-(U5-PROG)*%
X128016000Y-102416000D02*
X128016000Y-102108000D01*
X123698000Y-102108000D02*
X121682500Y-104123500D01*
X128016000Y-102108000D02*
X123698000Y-102108000D01*
X121858500Y-104299500D02*
X121682500Y-104123500D01*
X121858500Y-106426000D02*
X121858500Y-104299500D01*
X130220000Y-104620000D02*
X130220000Y-105890000D01*
X130220000Y-104620000D02*
X128016000Y-102416000D01*
%TO.N,Net-(SW1A-C)*%
X156003000Y-100123000D02*
X156718000Y-100838000D01*
X151384000Y-100123000D02*
X156003000Y-100123000D01*
%TO.N,Net-(U5-~{STDBY})*%
X138402000Y-107160000D02*
X138684000Y-107442000D01*
X125730000Y-104828500D02*
X126388500Y-104170000D01*
X135170000Y-107160000D02*
X138402000Y-107160000D01*
X125730000Y-105918000D02*
X125730000Y-104828500D01*
%TO.N,Net-(U5-~{CHRG})*%
X137668000Y-105918000D02*
X137640000Y-105890000D01*
X137640000Y-105890000D02*
X135170000Y-105890000D01*
X133000000Y-111730000D02*
X135158000Y-111730000D01*
X135158000Y-111730000D02*
X135890000Y-110998000D01*
%TO.N,Buzz+*%
X131167500Y-115570000D02*
X130810000Y-115570000D01*
X130810000Y-115570000D02*
X129794000Y-116586000D01*
X119888000Y-110744000D02*
X114300000Y-105156000D01*
X114046000Y-96774000D02*
X114046000Y-95758000D01*
X125476000Y-116586000D02*
X119888000Y-110998000D01*
X108966000Y-89662000D02*
X107678000Y-90950000D01*
X114808000Y-90849998D02*
X114217998Y-90849998D01*
X114046000Y-95758000D02*
X112014000Y-93726000D01*
X107678000Y-90950000D02*
X107030000Y-90950000D01*
X129794000Y-116586000D02*
X125476000Y-116586000D01*
X119888000Y-110998000D02*
X119888000Y-110744000D01*
X114300000Y-105156000D02*
X114300000Y-99822000D01*
X114217998Y-90849998D02*
X113030000Y-89662000D01*
%TO.N,Net-(U6-AD0)*%
X118872000Y-118618000D02*
X118872000Y-117602000D01*
X118872000Y-117602000D02*
X120269000Y-116205000D01*
%TO.N,Enb*%
X145060000Y-82990000D02*
X142054000Y-82990000D01*
X150242000Y-105538000D02*
X149098000Y-104394000D01*
X141986000Y-84582000D02*
X144018000Y-84582000D01*
X142054000Y-82990000D02*
X141986000Y-83058000D01*
X156718000Y-105538000D02*
X150242000Y-105538000D01*
X146567309Y-97282004D02*
X146050000Y-97282004D01*
X141986000Y-83058000D02*
X141986000Y-84582000D01*
X149098000Y-99812695D02*
X146567309Y-97282004D01*
X149098000Y-104394000D02*
X149098000Y-99812695D01*
X144018000Y-84582000D02*
X144526000Y-85090000D01*
%TO.N,T_IRQ*%
X91694000Y-118872000D02*
X92202000Y-119380000D01*
X86106000Y-74954010D02*
X86106000Y-75945980D01*
X107030000Y-85870000D02*
X111270000Y-85870000D01*
X111270000Y-85870000D02*
X111760000Y-86360000D01*
X86106000Y-75945980D02*
X82296000Y-79755980D01*
X82296000Y-90170000D02*
X86192084Y-94066084D01*
X108966000Y-82804000D02*
X108966000Y-78994000D01*
X86192084Y-94066084D02*
X86192084Y-118872000D01*
X92202000Y-119380000D02*
X95504000Y-119380000D01*
X82296000Y-79755980D02*
X82296000Y-90170000D01*
%TO.N,T_CS*%
X100330000Y-89916000D02*
X104524000Y-89916000D01*
D56*
X98298000Y-111760000D02*
X100076000Y-113538000D01*
X102616000Y-109982000D02*
X101600000Y-108966000D01*
X100076000Y-113538000D02*
X102616000Y-113538000D01*
X102616000Y-113538000D02*
X102616000Y-109982000D01*
X95504000Y-111760000D02*
X98298000Y-111760000D01*
X101600000Y-108966000D02*
X101600000Y-103378000D01*
D55*
X104524000Y-89916000D02*
X106030000Y-88410000D01*
X106030000Y-88410000D02*
X107030000Y-88410000D01*
%TO.N,CS*%
X95504000Y-91440000D02*
X101600000Y-91440000D01*
X120142000Y-93980000D02*
X120142000Y-92288000D01*
X120142000Y-92288000D02*
X120230000Y-92200000D01*
X101600000Y-91440000D02*
X105664000Y-95504000D01*
D56*
%TO.N,DC*%
X111506000Y-88392000D02*
X113030000Y-88392000D01*
D55*
X100330000Y-96520000D02*
X101092000Y-95758000D01*
X121158000Y-89408000D02*
X121500000Y-89750000D01*
X95504000Y-96520000D02*
X100330000Y-96520000D01*
D56*
X111506000Y-88646000D02*
X111506000Y-88392000D01*
X109474000Y-90678000D02*
X111506000Y-88646000D01*
X113030000Y-88392000D02*
X114046000Y-89408000D01*
X114046000Y-89408000D02*
X121158000Y-89408000D01*
D55*
X121500000Y-89750000D02*
X121500000Y-92200000D01*
%TO.N,RST*%
X124512000Y-89662000D02*
X124530000Y-89680000D01*
X121412000Y-88646000D02*
X122428000Y-89662000D01*
X95504000Y-93980000D02*
X101600000Y-93980000D01*
X115316000Y-88646000D02*
X121412000Y-88646000D01*
X101600000Y-93980000D02*
X103886000Y-96266000D01*
X122428000Y-89662000D02*
X124512000Y-89662000D01*
D56*
%TO.N,SCK*%
X126492000Y-76200000D02*
X126746000Y-75946000D01*
X126746000Y-75946000D02*
X126746000Y-74168000D01*
X98806000Y-109220000D02*
X101600000Y-112014000D01*
X80264000Y-121920000D02*
X84074000Y-125730000D01*
X124530000Y-84600000D02*
X125440000Y-84600000D01*
X84074000Y-125730000D02*
X105664000Y-125730000D01*
D55*
X95504000Y-109220000D02*
X98298000Y-109220000D01*
D56*
X126492000Y-83548000D02*
X126492000Y-83312000D01*
X105664000Y-125730000D02*
X106426000Y-124968000D01*
D55*
X98806000Y-108712000D02*
X99060000Y-108458000D01*
D56*
X80264000Y-74930000D02*
X80264000Y-121920000D01*
X125440000Y-84600000D02*
X126492000Y-83548000D01*
X95504000Y-109220000D02*
X98806000Y-109220000D01*
X120650000Y-73152000D02*
X82042000Y-73152000D01*
D55*
X98298000Y-109220000D02*
X98806000Y-108712000D01*
D56*
X120904000Y-73406000D02*
X120650000Y-73152000D01*
D55*
X99060000Y-108458000D02*
X99060000Y-105664000D01*
D56*
X82042000Y-73152000D02*
X80264000Y-74930000D01*
%TO.N,MISO*%
X118872000Y-74422000D02*
X118872000Y-75946000D01*
X92964000Y-106934000D02*
X91440000Y-108458000D01*
D55*
X100584000Y-117602000D02*
X101346000Y-118364000D01*
X100584000Y-117094000D02*
X100584000Y-117602000D01*
D56*
X90678000Y-108458000D02*
X91948000Y-109728000D01*
D55*
X101346000Y-118364000D02*
X100330000Y-119380000D01*
D56*
X91948000Y-109728000D02*
X91948000Y-114808000D01*
D55*
X92964000Y-106934000D02*
X93218000Y-106680000D01*
D56*
X121648000Y-83330000D02*
X124530000Y-83330000D01*
X93980000Y-116840000D02*
X95504000Y-116840000D01*
D55*
X100330000Y-119380000D02*
X100330000Y-120650000D01*
X93218000Y-106680000D02*
X95504000Y-106680000D01*
D56*
X91440000Y-108458000D02*
X90678000Y-108458000D01*
X91948000Y-114808000D02*
X93980000Y-116840000D01*
X119126000Y-74168000D02*
X118872000Y-74422000D01*
X120650000Y-84328000D02*
X121648000Y-83330000D01*
X118872000Y-75946000D02*
X117602000Y-77216000D01*
X117602000Y-77216000D02*
X117348000Y-77216000D01*
D55*
%TO.N,MOSI*%
X95504000Y-114300000D02*
X97790000Y-114300000D01*
X97790000Y-114300000D02*
X98298000Y-113792000D01*
X120396000Y-90424000D02*
X120650000Y-90170000D01*
X109728000Y-96520000D02*
X109728000Y-96012000D01*
X123190000Y-75946000D02*
X123426000Y-75710000D01*
X109728000Y-96012000D02*
X110998000Y-94742000D01*
X97282000Y-97282000D02*
X104902000Y-97282000D01*
X115824000Y-90424000D02*
X120396000Y-90424000D01*
X95504000Y-99060000D02*
X97282000Y-97282000D01*
X123426000Y-75710000D02*
X124530000Y-75710000D01*
X95504000Y-99060000D02*
X95758000Y-99060000D01*
X104902000Y-97282000D02*
X105410000Y-96774000D01*
X121666000Y-75946000D02*
X123190000Y-75946000D01*
%TO.N,+3.3V*%
X120716000Y-101092000D02*
X120716000Y-98740000D01*
X138176000Y-97536000D02*
X140208000Y-97536000D01*
X124817500Y-98806000D02*
X124563500Y-99060000D01*
X104648000Y-98655500D02*
X108712000Y-98655500D01*
X115569992Y-86106000D02*
X118110000Y-83565992D01*
X149098000Y-96266000D02*
X149254100Y-96266000D01*
X138938000Y-102108000D02*
X138938000Y-101600000D01*
X98806000Y-84328000D02*
X103124000Y-88646000D01*
X111760000Y-78486000D02*
X109982000Y-76708000D01*
X93726000Y-84328000D02*
X94083500Y-83970500D01*
D56*
X134046000Y-118552000D02*
X134112000Y-118618000D01*
D55*
X117856000Y-99464500D02*
X119991500Y-99464500D01*
X142240000Y-116586000D02*
X141986000Y-116840000D01*
X99163500Y-104140000D02*
X104648000Y-98655500D01*
X129032000Y-98806000D02*
X124817500Y-98806000D01*
X149837500Y-94000000D02*
X149837500Y-91694000D01*
X109728000Y-124152000D02*
X109728000Y-122682000D01*
X113728000Y-98044000D02*
X116435500Y-98044000D01*
X149352000Y-91730000D02*
X149801500Y-91730000D01*
X93980000Y-74422000D02*
X94497000Y-73905000D01*
X123547500Y-96266000D02*
X124563500Y-97282000D01*
D56*
X102870000Y-98298000D02*
X103227500Y-98655500D01*
D55*
X150876000Y-116586000D02*
X142240000Y-116586000D01*
X94083500Y-75033500D02*
X93980000Y-74930000D01*
X94497000Y-73905000D02*
X104225000Y-73905000D01*
X108712000Y-98655500D02*
X110386500Y-98655500D01*
X148590000Y-106783500D02*
X150979500Y-106783500D01*
X103124000Y-88646000D02*
X104140000Y-88646000D01*
X110290000Y-124714000D02*
X109728000Y-124152000D01*
X116586000Y-100734500D02*
X117856000Y-99464500D01*
X94083500Y-78486000D02*
X94083500Y-75033500D01*
X123444000Y-120904000D02*
X130810000Y-120904000D01*
X119634000Y-121666000D02*
X119634000Y-124714000D01*
X120462000Y-97028000D02*
X120462000Y-97094000D01*
X149801500Y-91730000D02*
X149837500Y-91694000D01*
X107714000Y-75710000D02*
X108712000Y-76708000D01*
X116586000Y-102108000D02*
X116586000Y-100734500D01*
X152654000Y-108458000D02*
X152654000Y-109220000D01*
X149254100Y-96266000D02*
X149837500Y-95682600D01*
X134112000Y-118618000D02*
X134874000Y-118618000D01*
X148590000Y-106783500D02*
X148414500Y-106783500D01*
X106030000Y-75710000D02*
X107030000Y-75710000D01*
X94083500Y-82804000D02*
X94083500Y-78486000D01*
X149837500Y-95682600D02*
X149837500Y-94000000D01*
X139700000Y-102870000D02*
X138938000Y-102108000D01*
X123143000Y-99060000D02*
X124667000Y-100584000D01*
X141820000Y-77890000D02*
X141732000Y-77978000D01*
X107030000Y-75710000D02*
X107714000Y-75710000D01*
X108712000Y-76708000D02*
X109474000Y-76708000D01*
X123190000Y-98044000D02*
X123801500Y-98044000D01*
X120462000Y-97094000D02*
X121412000Y-98044000D01*
X149837500Y-91402500D02*
X150380000Y-90860000D01*
X116435500Y-98044000D02*
X117856000Y-99464500D01*
X130810000Y-120904000D02*
X133096000Y-118618000D01*
X141320000Y-96424000D02*
X140208000Y-97536000D01*
X138938000Y-101600000D02*
X134366000Y-101600000D01*
X148414500Y-106783500D02*
X147041000Y-105410000D01*
X95504000Y-86360000D02*
X93726000Y-84582000D01*
X94083500Y-83970500D02*
X94083500Y-82804000D01*
X122911000Y-99060000D02*
X123143000Y-99060000D01*
D56*
X149817500Y-81010000D02*
X146697500Y-77890000D01*
X103227500Y-98655500D02*
X104648000Y-98655500D01*
D55*
X113030000Y-87122000D02*
X114046000Y-86106000D01*
X123801500Y-98044000D02*
X124563500Y-97282000D01*
X95504000Y-104140000D02*
X99163500Y-104140000D01*
X93726000Y-84582000D02*
X93726000Y-84328000D01*
X120716000Y-98740000D02*
X121412000Y-98044000D01*
X144700999Y-102870000D02*
X139700000Y-102870000D01*
X134366000Y-101600000D02*
X133858000Y-101092000D01*
D56*
X104648000Y-92964000D02*
X105410000Y-93726000D01*
D55*
X114046000Y-86106000D02*
X115569992Y-86106000D01*
X124563500Y-100480500D02*
X124667000Y-100584000D01*
X147041000Y-105210001D02*
X144700999Y-102870000D01*
D56*
X134046000Y-117348000D02*
X134046000Y-118552000D01*
D55*
X149837500Y-91694000D02*
X149837500Y-91402500D01*
X109728000Y-120904000D02*
X109728000Y-122682000D01*
X110386500Y-98655500D02*
X112363000Y-96679000D01*
X133096000Y-118618000D02*
X134112000Y-118618000D01*
X104225000Y-73905000D02*
X106030000Y-75710000D01*
X137668000Y-98044000D02*
X138176000Y-97536000D01*
X122911000Y-96266000D02*
X123547500Y-96266000D01*
X145060000Y-77890000D02*
X141820000Y-77890000D01*
X124563500Y-97282000D02*
X124563500Y-99060000D01*
X121920000Y-119380000D02*
X123444000Y-120904000D01*
X105029000Y-116205000D02*
X109728000Y-120904000D01*
X147041000Y-105410000D02*
X147041000Y-105210001D01*
X150979500Y-106783500D02*
X152654000Y-108458000D01*
X109982000Y-76708000D02*
X109474000Y-76708000D01*
X93980000Y-74930000D02*
X93980000Y-74422000D01*
X124563500Y-99060000D02*
X124563500Y-100480500D01*
X112363000Y-96679000D02*
X113728000Y-98044000D01*
X146270000Y-91730000D02*
X149352000Y-91730000D01*
X119991500Y-99464500D02*
X121412000Y-98044000D01*
D56*
X104648000Y-91948000D02*
X104648000Y-92964000D01*
X146697500Y-77890000D02*
X145060000Y-77890000D01*
D55*
X121920000Y-119380000D02*
X119634000Y-121666000D01*
X141320000Y-95540000D02*
X141320000Y-96424000D01*
%TO.N,C_2*%
X107030000Y-80790000D02*
X100094000Y-80790000D01*
X86614000Y-78740000D02*
X87122000Y-78232000D01*
D56*
X86106000Y-80010000D02*
X86106000Y-79248000D01*
D55*
X95805000Y-74930000D02*
X98044000Y-77169000D01*
X86106000Y-90512000D02*
X86106000Y-80010000D01*
X90678000Y-77470000D02*
X93218000Y-80010000D01*
D56*
X98806000Y-79502000D02*
X99568000Y-80264000D01*
X98044000Y-79502000D02*
X98806000Y-79502000D01*
X86106000Y-79248000D02*
X86614000Y-78740000D01*
D55*
X87122000Y-78232000D02*
X89916000Y-78232000D01*
X100094000Y-80790000D02*
X99568000Y-80264000D01*
X90372000Y-94778000D02*
X86106000Y-90512000D01*
X89916000Y-78232000D02*
X90678000Y-77470000D01*
X98044000Y-77169000D02*
X98044000Y-79502000D01*
%TO.N,Fail_safe*%
X95908500Y-79186000D02*
X98782500Y-82060000D01*
X95758000Y-78335500D02*
X95908500Y-78486000D01*
X98782500Y-82060000D02*
X107030000Y-82060000D01*
X95908500Y-78486000D02*
X95908500Y-79186000D01*
X95758000Y-76708000D02*
X95758000Y-78335500D01*
%TD*%
M02*
