%TF.GenerationSoftware,KiCad,Pcbnew,7.0.10*%
%TF.CreationDate,2024-08-15T14:25:41+05:30*%
%TF.ProjectId,Watch,57617463-682e-46b6-9963-61645f706362,rev?*%
%TF.SameCoordinates,Original*%
%TF.FileFunction,Soldermask,Bot*%
%TF.FilePolarity,Negative*%
%FSLAX46Y46*%
G04 Gerber Fmt 4.6, Leading zero omitted, Abs format (unit mm)*
G04 Created by KiCad (PCBNEW 7.0.10) date 2024-08-15 14:25:41*
%MOMM*%
%LPD*%
G01*
G04 APERTURE LIST*
G04 Aperture macros list*
%AMRoundRect*
0 Rectangle with rounded corners*
0 $1 Rounding radius*
0 $2 $3 $4 $5 $6 $7 $8 $9 X,Y pos of 4 corners*
0 Add a 4 corners polygon primitive as box body*
4,1,4,$2,$3,$4,$5,$6,$7,$8,$9,$2,$3,0*
0 Add four circle primitives for the rounded corners*
1,1,$1+$1,$2,$3*
1,1,$1+$1,$4,$5*
1,1,$1+$1,$6,$7*
1,1,$1+$1,$8,$9*
0 Add four rect primitives between the rounded corners*
20,1,$1+$1,$2,$3,$4,$5,0*
20,1,$1+$1,$4,$5,$6,$7,0*
20,1,$1+$1,$6,$7,$8,$9,0*
20,1,$1+$1,$8,$9,$2,$3,0*%
G04 Aperture macros list end*
%ADD10C,2.000000*%
%ADD11R,1.700000X1.700000*%
%ADD12O,1.700000X1.700000*%
%ADD13C,0.650000*%
%ADD14O,2.100000X1.000000*%
%ADD15O,1.600000X1.000000*%
%ADD16C,3.800000*%
%ADD17RoundRect,0.102000X0.704000X-0.704000X0.704000X0.704000X-0.704000X0.704000X-0.704000X-0.704000X0*%
%ADD18C,1.612000*%
%ADD19C,1.524000*%
%ADD20C,1.500000*%
%ADD21O,3.000000X1.500000*%
%ADD22R,2.000000X2.000000*%
%ADD23RoundRect,0.459375X-1.290625X-1.010625X1.290625X-1.010625X1.290625X1.010625X-1.290625X1.010625X0*%
%ADD24RoundRect,0.546875X1.458125X-1.203125X1.458125X1.203125X-1.458125X1.203125X-1.458125X-1.203125X0*%
G04 APERTURE END LIST*
D10*
%TO.C,BOOT*%
X83872000Y-106716000D03*
X90372000Y-106716000D03*
X83872000Y-111216000D03*
X90372000Y-111216000D03*
%TD*%
D11*
%TO.C,J3*%
X129540000Y-119380000D03*
D12*
X127000000Y-119380000D03*
X124460000Y-119380000D03*
X121920000Y-119380000D03*
%TD*%
D13*
%TO.C,J1*%
X156350000Y-83390000D03*
X156350000Y-77610000D03*
D14*
X155850000Y-84820000D03*
D15*
X160030000Y-84820000D03*
D14*
X155850000Y-76180000D03*
D15*
X160030000Y-76180000D03*
%TD*%
D10*
%TO.C,Failsafe*%
X84126000Y-75982000D03*
X90626000Y-75982000D03*
X84126000Y-80482000D03*
X90626000Y-80482000D03*
%TD*%
%TO.C,Reset*%
X83618000Y-116114000D03*
X90118000Y-116114000D03*
X83618000Y-120614000D03*
X90118000Y-120614000D03*
%TD*%
D16*
%TO.C,M2*%
X158750000Y-125476000D03*
%TD*%
D17*
%TO.C,SW1*%
X156718000Y-107616000D03*
D18*
X156718000Y-105116000D03*
X156718000Y-102616000D03*
%TD*%
D19*
%TO.C,U6*%
X105029000Y-115697000D03*
X107569000Y-115697000D03*
X110109000Y-115697000D03*
X112649000Y-115697000D03*
X115189000Y-115697000D03*
X117729000Y-115697000D03*
X120269000Y-115697000D03*
X122809000Y-115697000D03*
%TD*%
D20*
%TO.C,Y1*%
X146214000Y-101346000D03*
X141334000Y-101346000D03*
%TD*%
D10*
%TO.C,Control_1*%
X90372000Y-88864000D03*
X83872000Y-88864000D03*
X90372000Y-84364000D03*
X83872000Y-84364000D03*
%TD*%
D19*
%TO.C,MAX1*%
X112363000Y-96679000D03*
X112363000Y-99219000D03*
X112363000Y-101759000D03*
X112363000Y-104299000D03*
X112363000Y-106839000D03*
%TD*%
D21*
%TO.C,U3*%
X95504000Y-86360000D03*
X95504000Y-88900000D03*
X95504000Y-91440000D03*
X95504000Y-93980000D03*
X95504000Y-96520000D03*
X95504000Y-99060000D03*
X95504000Y-101600000D03*
X95504000Y-104140000D03*
X95504000Y-106680000D03*
X95504000Y-109220000D03*
X95504000Y-111760000D03*
X95504000Y-114300000D03*
X95504000Y-116840000D03*
X95504000Y-119380000D03*
%TD*%
D10*
%TO.C,Control_2*%
X83872000Y-94778000D03*
X90372000Y-94778000D03*
X83872000Y-99278000D03*
X90372000Y-99278000D03*
%TD*%
D22*
%TO.C,BZ1*%
X143266000Y-120650000D03*
D10*
X150866000Y-120650000D03*
%TD*%
D23*
%TO.C,M1*%
X131318000Y-123444000D03*
X138148000Y-123444000D03*
%TD*%
D24*
%TO.C,J2*%
X156718000Y-115824000D03*
X156718000Y-120904000D03*
%TD*%
M02*
